<svg xmlns="http://www.w3.org/2000/svg" xmlns:xlink="http://www.w3.org/1999/xlink" width="500" zoomAndPan="magnify" viewBox="0 0 375 374.999991" height="500" preserveAspectRatio="xMidYMid meet" version="1.0"><defs><clipPath id="3064b2b5af"><path d="M 64 59 L 301 59 L 301 328 L 64 328 Z M 64 59 " clip-rule="nonzero"/></clipPath><clipPath id="dc805b00bd"><path d="M 181.625 3.480469 L 387.140625 178.589844 L 212.03125 384.105469 L 6.515625 208.996094 Z M 181.625 3.480469 " clip-rule="nonzero"/></clipPath><clipPath id="4ceed7208f"><path d="M 181.625 3.480469 L 387.140625 178.589844 L 212.03125 384.105469 L 6.515625 208.996094 Z M 181.625 3.480469 " clip-rule="nonzero"/></clipPath></defs><rect x="-37.5" width="450" fill="#ffffff" y="-37.499999" height="449.999989" fill-opacity="1"/><rect x="-37.5" width="450" fill="#fff9ef" y="-37.499999" height="449.999989" fill-opacity="1"/><g clip-path="url(#3064b2b5af)"><g clip-path="url(#dc805b00bd)"><g clip-path="url(#4ceed7208f)"><path fill="#354ead" d="M 300.441406 280.394531 C 283.289062 300.523438 260.550781 315.117188 235.105469 322.324219 C 209.660156 329.535156 182.648438 329.035156 157.484375 320.894531 C 132.320312 312.75 110.140625 297.328125 93.742188 276.578125 C 77.34375 255.828125 67.46875 230.679688 65.363281 204.316406 C 63.253906 177.953125 69.015625 151.558594 81.910156 128.46875 C 94.804688 105.378906 114.257812 86.628906 137.808594 74.59375 C 161.359375 62.5625 187.949219 57.78125 214.21875 60.859375 C 240.484375 63.933594 265.25 74.734375 285.382812 91.886719 L 198.65625 193.667969 Z M 300.441406 280.394531 " fill-opacity="1" fill-rule="nonzero"/></g></g></g></svg>