<svg xmlns="http://www.w3.org/2000/svg" width="3000" height="3000" fill="none" viewBox="0 0 3000 3000" id="education-of-ideas">
  <path fill="#000" d="M1029.57 1887.17C1018.98 1887.22 1008.41 1886.65 997.895 1885.46C996.173 1885.3 994.501 1884.79 992.979 1883.97C991.457 1883.15 990.116 1882.03 989.035 1880.68C987.955 1879.33 987.157 1877.78 986.689 1876.11C986.22 1874.45 986.092 1872.7 986.311 1870.99C986.529 1869.27 987.091 1867.62 987.962 1866.13C988.833 1864.63 989.995 1863.33 991.38 1862.29C992.765 1861.26 994.344 1860.51 996.024 1860.1C997.703 1859.68 999.448 1859.61 1001.16 1859.89C1026.58 1863.08 1096.28 1864.51 1113.17 1833.17C1120.45 1819.69 1120.54 1799.75 1113.49 1783.56C1110.28 1776.02 1105.34 1769.35 1099.08 1764.08C1092.81 1758.81 1085.39 1755.09 1077.41 1753.23C1032 1741.66 946.474 1742.49 945.626 1742.51H945.479C942.059 1742.53 938.771 1741.19 936.338 1738.78C933.906 1736.38 932.528 1733.11 932.509 1729.69C932.489 1726.27 933.829 1722.98 936.234 1720.55C938.639 1718.11 941.911 1716.74 945.332 1716.72C949.016 1716.72 1035.11 1715.83 1083.77 1728.23C1095.54 1731.08 1106.48 1736.62 1115.74 1744.43C1125 1752.23 1132.31 1762.09 1137.1 1773.2C1147.38 1796.64 1146.91 1824.97 1135.89 1845.41C1123.4 1868.57 1095.8 1882.25 1053.88 1886.1C1045.3 1886.9 1037.05 1887.17 1029.57 1887.17Z"></path>
  <path fill="#000" d="M1023.71 2021.02C1013.13 2021.06 1002.55 2020.49 992.036 2019.31C990.356 2019.1 988.734 2018.55 987.264 2017.71C985.793 2016.87 984.503 2015.75 983.466 2014.41C982.429 2013.07 981.666 2011.54 981.221 2009.91C980.776 2008.27 980.657 2006.56 980.871 2004.88C981.085 2003.2 981.628 2001.58 982.469 2000.11C983.31 1998.64 984.432 1997.35 985.772 1996.31C987.111 1995.28 988.642 1994.52 990.276 1994.07C991.911 1993.62 993.617 1993.51 995.297 1993.72C1020.72 1996.91 1090.42 1998.34 1107.33 1967.01C1113.95 1954.72 1115.48 1932.74 1105.49 1914.53C1096.63 1898.28 1080.34 1888.74 1058.38 1887.06C1054.96 1886.8 1051.79 1885.18 1049.55 1882.58C1047.32 1879.97 1046.22 1876.58 1046.49 1873.16C1046.75 1869.74 1048.37 1866.57 1050.97 1864.34C1053.58 1862.11 1056.97 1861.01 1060.39 1861.27C1091.03 1863.68 1115.09 1878.18 1128.13 1902.12C1141.03 1925.68 1141.71 1957.39 1129.97 1979.17C1117.48 2002.32 1089.9 2016.01 1047.97 2019.88C1039.44 2020.8 1031.15 2021.02 1023.71 2021.02Z"></path>
  <path fill="#000" d="M1014.94 2142.62C1004.36 2142.66 993.794 2142.08 983.285 2140.91H982.879C953.659 2136.18 926.454 2123.02 904.597 2103.06 882.741 2083.1 867.182 2057.19 859.827 2028.52 859.554 2027.48 859.418 2026.4 859.422 2025.32V2024.71C864.949 1888.37 875.321 1626.11 875.321 1608.76 875.321 1593.52 889.968 1581.12 912.648 1577.07 942.789 1571.72 979.121 1582.59 992.423 1619.04 1002.36 1646.32 1009.04 1674.68 1012.34 1703.53 1012.55 1706.87 1011.46 1710.17 1009.29 1712.72 1007.11 1715.27 1004.03 1716.88 1000.69 1717.19 997.358 1717.51 994.029 1716.52 991.412 1714.43 988.795 1712.33 987.096 1709.3 986.675 1705.98 983.532 1679.37 977.35 1653.21 968.251 1628.01 960.494 1606.78 941.278 1602.51 930.519 1601.85 914.748 1600.89 903.178 1606.6 901.17 1609.53 900.912 1636.78 886.67 1990.9 885.344 2023.95 891.71 2047.32 904.658 2068.37 922.646 2084.58 940.634 2100.8 962.904 2111.51 986.804 2115.43 1012.39 2118.6 1081.76 2119.94 1098.62 2088.68 1101.92 2082.22 1103.6 2075.06 1103.52 2067.81 1103.43 2060.56 1101.59 2053.43 1098.14 2047.06 1089.53 2031.27 1071.98 2021.91 1047.36 2019.97 1045.67 2019.84 1044.02 2019.38 1042.5 2018.61 1040.99 2017.84 1039.64 2016.78 1038.54 2015.49 1037.43 2014.2 1036.59 2012.7 1036.07 2011.08 1035.54 2009.47 1035.34 2007.77 1035.47 2006.07 1035.6 2004.38 1036.07 2002.73 1036.84 2001.21 1037.61 1999.7 1038.67 1998.35 1039.96 1997.25 1041.25 1996.14 1042.74 1995.3 1044.36 1994.78 1045.97 1994.25 1047.68 1994.05 1049.37 1994.18 1082.63 1996.8 1107.98 2011.15 1120.78 2034.71 1126.31 2044.85 1129.26 2056.2 1129.35 2067.75 1129.44 2079.3 1126.68 2090.7 1121.32 2100.93 1108.82 2124.09 1081.24 2137.77 1039.33 2141.63 1030.71 2142.33 1022.44 2142.62 1014.94 2142.62ZM2356.02 1887.17C2348.56 1887.17 2340.29 1886.9 2331.68 1886.11 2289.77 1882.27 2262.17 1868.57 2249.7 1845.41 2238.64 1824.98 2238.18 1796.64 2248.46 1773.21 2253.27 1762.08 2260.6 1752.22 2269.87 1744.42 2279.14 1736.61 2290.11 1731.07 2301.89 1728.23 2350.55 1715.83 2436.7 1716.68 2440.33 1716.72 2443.75 1716.74 2447.02 1718.11 2449.42 1720.55 2451.83 1722.98 2453.17 1726.27 2453.15 1729.69 2453.13 1733.11 2451.75 1736.38 2449.32 1738.79 2446.89 1741.19 2443.6 1742.53 2440.18 1742.51H2440.03C2439.18 1742.51 2353.62 1741.68 2308.25 1753.23 2300.27 1755.1 2292.85 1758.81 2286.58 1764.08 2280.31 1769.35 2275.38 1776.02 2272.17 1783.56 2265.08 1799.75 2265.21 1819.69 2272.49 1833.17 2289.38 1864.49 2359.08 1863.08 2384.52 1859.87 2387.91 1859.44 2391.34 1860.38 2394.04 1862.47 2396.75 1864.57 2398.51 1867.65 2398.94 1871.04 2399.37 1874.44 2398.43 1877.86 2396.34 1880.57 2394.24 1883.27 2391.16 1885.03 2387.76 1885.46 2377.22 1886.65 2366.63 1887.23 2356.02 1887.17Z"></path>
  <path fill="#000" d="M2361.86 2021.02C2354.49 2021.02 2346.13 2020.73 2337.54 2019.95C2295.63 2016.1 2268.03 2002.4 2255.54 1979.26C2243.78 1957.42 2244.48 1925.83 2257.38 1902.19C2270.42 1878.24 2294.48 1863.76 2325.12 1861.34C2328.54 1861.08 2331.93 1862.18 2334.54 1864.41C2337.14 1866.64 2338.76 1869.82 2339.02 1873.24C2339.29 1876.66 2338.19 1880.04 2335.96 1882.65C2333.73 1885.26 2330.55 1886.87 2327.13 1887.14C2305.17 1888.85 2288.88 1898.36 2280.02 1914.61C2270.11 1932.81 2271.64 1954.79 2278.18 1967.08C2295.07 1998.4 2364.77 1996.98 2390.21 1993.79C2393.61 1993.36 2397.03 1994.3 2399.74 1996.39C2402.44 1998.49 2404.2 2001.57 2404.63 2004.97C2405.06 2008.36 2404.12 2011.78 2402.03 2014.49C2399.93 2017.19 2396.85 2018.95 2393.46 2019.38C2382.96 2020.53 2372.41 2021.08 2361.86 2021.02Z"></path>
  <path fill="#000" d="M2370.59 2142.62C2363.22 2142.62 2354.86 2142.34 2346.26 2141.55C2304.34 2137.7 2276.76 2124.01 2264.27 2100.85C2258.9 2090.63 2256.14 2079.23 2256.23 2067.68C2256.33 2056.13 2259.27 2044.78 2264.8 2034.64C2277.61 2011.15 2302.96 1996.8 2336.21 1994.11C2339.63 1993.84 2343.02 1994.94 2345.63 1997.17C2348.23 1999.4 2349.85 2002.58 2350.11 2006C2350.38 2009.42 2349.28 2012.81 2347.05 2015.41C2344.82 2018.02 2341.64 2019.63 2338.22 2019.9C2313.61 2021.74 2296.05 2031.19 2287.45 2046.98C2284 2053.36 2282.15 2060.48 2282.07 2067.73C2281.99 2074.98 2283.67 2082.15 2286.97 2088.6C2303.83 2119.92 2373.17 2118.52 2398.78 2115.33C2422.68 2111.42 2444.95 2100.72 2462.95 2084.5C2480.94 2068.29 2493.89 2047.25 2500.26 2023.88C2498.91 1990.85 2484.67 1636.69 2484.43 1609.46C2482.41 1606.53 2470.85 1600.81 2455.07 1601.77C2444.31 1602.44 2425.09 1606.71 2417.35 1627.93C2408.25 1653.14 2402.06 1679.31 2398.93 1705.92C2398.56 1709.28 2396.89 1712.36 2394.27 1714.5C2391.66 1716.64 2388.3 1717.67 2384.94 1717.36C2381.57 1717.06 2378.46 1715.44 2376.27 1712.86C2374.09 1710.29 2373 1706.95 2373.25 1703.58C2376.53 1674.73 2383.21 1646.37 2393.14 1619.09C2406.45 1582.7 2442.89 1571.78 2472.92 1577.12C2495.6 1581.14 2510.24 1593.57 2510.24 1608.81C2510.24 1630.57 2525.98 2020.84 2526.14 2024.78C2526.18 2026.02 2526.05 2027.26 2525.74 2028.47C2518.39 2057.13 2502.85 2083.03 2481 2102.99C2459.16 2122.95 2431.97 2136.11 2402.76 2140.85H2402.28C2391.76 2142.05 2381.18 2142.64 2370.59 2142.62Z"></path>
  <path fill="#000" d="M2372.93 1704.34C2369.59 1704.34 2366.38 1703.04 2363.97 1700.72C2361.57 1698.4 2360.16 1695.24 2360.04 1691.9L2347.93 1359.09L1775.84 1537.6C1772.57 1538.62 1769.03 1538.3 1766 1536.71C1762.97 1535.12 1760.7 1532.39 1759.68 1529.13C1758.66 1525.86 1758.98 1522.32 1760.57 1519.29C1762.16 1516.26 1764.89 1513.99 1768.15 1512.97L2356.31 1329.45C2358.21 1328.86 2360.21 1328.71 2362.17 1329.02C2364.12 1329.33 2365.98 1330.09 2367.6 1331.23C2369.22 1332.38 2370.55 1333.88 2371.5 1335.62C2372.44 1337.36 2372.97 1339.3 2373.04 1341.28L2385.76 1690.96C2385.88 1694.38 2384.64 1697.71 2382.31 1700.21C2379.98 1702.72 2376.76 1704.19 2373.34 1704.32L2372.93 1704.34Z"></path>
  <path fill="#000" d="M1642.03 1626.64H1641.34C1541.3 1626.28 1514.92 1568.3 1497.45 1529.94C1496.22 1527.23 1495.02 1524.59 1493.77 1522.07C1493.01 1520.53 1492.57 1518.86 1492.47 1517.15C1492.36 1515.44 1492.6 1513.72 1493.17 1512.11C1493.73 1510.49 1494.62 1509 1495.77 1507.73C1496.91 1506.46 1498.31 1505.43 1499.86 1504.7C1501.41 1503.97 1503.09 1503.56 1504.8 1503.49C1506.51 1503.41 1508.22 1503.69 1509.83 1504.28C1511.44 1504.88 1512.91 1505.79 1514.16 1506.96C1515.41 1508.13 1516.41 1509.54 1517.11 1511.11C1518.35 1513.72 1519.58 1516.45 1520.8 1519.25C1537.38 1555.47 1557.79 1600.56 1641.31 1600.85H1641.92C1732.74 1600.85 1758.63 1524.59 1759.68 1521.33C1760.72 1518.07 1763.02 1515.36 1766.06 1513.8C1769.1 1512.23 1772.64 1511.94 1775.9 1512.98C1779.16 1514.02 1781.87 1516.32 1783.44 1519.36C1785.01 1522.4 1785.3 1525.94 1784.26 1529.2C1777.65 1547.33 1767.58 1563.99 1754.61 1578.28C1734.92 1600.37 1699.3 1626.64 1642.03 1626.64Z"></path>
  <path fill="#000" d="M958.192 1583.09C954.771 1583.09 951.491 1581.73 949.072 1579.31 946.654 1576.89 945.295 1573.61 945.295 1570.19V1427.59C945.294 1425.75 945.687 1423.93 946.449 1422.25 947.21 1420.57 948.323 1419.08 949.71 1417.87 951.098 1416.66 952.729 1415.76 954.494 1415.23 956.259 1414.7 958.117 1414.56 959.942 1414.81 961.287 1414.99 1096.59 1433.47 1231.05 1453.5 1310.09 1465.32 1373.37 1475.38 1419.17 1483.44 1446.49 1488.23 1467.9 1492.35 1482.75 1495.71 1507.51 1501.23 1513.94 1504.14 1517.17 1511.03 1518.45 1513.73 1518.77 1516.78 1518.05 1519.68 1517.34 1522.58 1515.64 1525.14 1513.25 1526.93 1510.86 1528.71 1507.92 1529.61 1504.94 1529.48 1501.96 1529.34 1499.12 1528.18 1496.9 1526.18 1468.14 1513.59 1166.56 1469.06 971.051 1442.3V1570.19C971.051 1573.61 969.698 1576.88 967.287 1579.3 964.876 1581.72 961.606 1583.08 958.192 1583.09ZM1466.87 2371.94C1465.32 2371.94 1463.77 2371.65 1462.32 2371.09 1298.2 2309.17 962.024 2320.46 958.652 2320.58 956.92 2320.64 955.193 2320.35 953.575 2319.73 951.957 2319.11 950.48 2318.17 949.234 2316.96 947.987 2315.76 946.995 2314.32 946.319 2312.72 945.642 2311.13 945.294 2309.41 945.295 2307.68V2185.23C945.295 2181.81 946.654 2178.53 949.072 2176.12 951.491 2173.7 954.771 2172.34 958.192 2172.34 961.612 2172.34 964.892 2173.7 967.311 2176.12 969.729 2178.53 971.088 2181.81 971.088 2185.23V2294.4C1036.62 2292.81 1319.44 2289.59 1471.42 2346.94 1474.26 2348 1476.64 2350.02 1478.13 2352.65 1479.63 2355.28 1480.15 2358.36 1479.61 2361.34 1479.07 2364.32 1477.49 2367.01 1475.16 2368.94 1472.84 2370.88 1469.9 2371.93 1466.87 2371.92V2371.94ZM1503.3 2268.88C1499.87 2268.88 1496.59 2267.52 1494.18 2265.1 1491.76 2262.68 1490.4 2259.4 1490.4 2255.98V1642.14C1490.4 1638.72 1491.76 1635.44 1494.18 1633.02 1496.59 1630.6 1499.87 1629.24 1503.3 1629.24 1506.72 1629.24 1510 1630.6 1512.41 1633.02 1514.83 1635.44 1516.19 1638.72 1516.19 1642.14V2255.98C1516.19 2259.4 1514.83 2262.68 1512.41 2265.1 1510 2267.52 1506.72 2268.88 1503.3 2268.88ZM1648.27 2454.16C1606.67 2454.16 1563.52 2438.62 1519.84 2407.72 1517.06 2405.74 1515.17 2402.74 1514.59 2399.38 1514.01 2396.01 1514.8 2392.56 1516.76 2389.77 1518.73 2386.98 1521.73 2385.08 1525.09 2384.5 1528.45 2383.91 1531.91 2384.68 1534.71 2386.64 1583.27 2420.93 1630.07 2434.18 1673.79 2426.01 1728.58 2415.79 1763.22 2374.32 1771.9 2362.82V1570.19C1771.9 1566.77 1773.25 1563.49 1775.67 1561.07 1778.09 1558.66 1781.37 1557.3 1784.79 1557.3 1788.21 1557.3 1791.49 1558.66 1793.91 1561.07 1796.33 1563.49 1797.69 1566.77 1797.69 1570.19V2366.98C1797.69 2369.51 1796.95 2371.98 1795.55 2374.08 1793.86 2376.66 1753.18 2437.29 1678.86 2451.31 1668.77 2453.21 1658.53 2454.16 1648.27 2454.16ZM1819.76 2393.07C1816.68 2393.04 1813.71 2391.92 1811.39 2389.9 1809.07 2387.87 1807.55 2385.09 1807.11 2382.04 1806.66 2378.99 1807.32 2375.89 1808.97 2373.29 1810.61 2370.68 1813.13 2368.75 1816.07 2367.85L2334.08 2209.57V2143.36C2334.08 2139.94 2335.44 2136.65 2337.85 2134.24 2340.27 2131.82 2343.55 2130.46 2346.97 2130.46 2350.39 2130.46 2353.67 2131.82 2356.09 2134.24 2358.51 2136.65 2359.87 2139.94 2359.87 2143.36V2219.11C2359.86 2221.89 2358.96 2224.58 2357.3 2226.8 2355.64 2229.02 2353.31 2230.65 2350.66 2231.44L1823.41 2392.52C1822.22 2392.88 1821 2393.06 1819.76 2393.07Z"></path>
  <path fill="#000" d="M1609.78 1550.72C1607.86 1550.72 1605.95 1550.3 1604.21 1549.47C1602.47 1548.64 1600.94 1547.43 1599.72 1545.93C1515.57 1441.6 1375.71 1405.91 1273.22 1394.23C1208.84 1387.15 1143.9 1386.66 1079.42 1392.77L1086.31 1441.1C1086.55 1442.78 1086.46 1444.48 1086.04 1446.13C1085.63 1447.77 1084.89 1449.31 1083.87 1450.67C1081.82 1453.41 1078.77 1455.22 1075.39 1455.71C1073.71 1455.95 1072 1455.86 1070.36 1455.44C1068.72 1455.02 1067.17 1454.29 1065.82 1453.27C1063.08 1451.22 1061.26 1448.17 1060.78 1444.78L1052.01 1383.32C1051.76 1381.64 1051.86 1379.92 1052.29 1378.27C1052.71 1376.62 1053.46 1375.07 1054.49 1373.71C1055.52 1372.36 1056.8 1371.21 1058.27 1370.36C1059.74 1369.5 1061.37 1368.94 1063.06 1368.71C1066.97 1368.18 1160.13 1355.52 1275.61 1368.53C1343.69 1376.19 1405.24 1391.28 1458.56 1413.37C1525.81 1441.25 1580.16 1480.4 1619.9 1529.72C1621.43 1531.61 1622.39 1533.9 1622.68 1536.32C1622.96 1538.73 1622.56 1541.18 1621.51 1543.38C1620.46 1545.57 1618.81 1547.43 1616.75 1548.73C1614.69 1550.03 1612.31 1550.72 1609.88 1550.72H1609.78Z"></path>
  <path fill="#000" d="M1631.36 1545.69C1628.97 1545.69 1626.63 1545.03 1624.6 1543.78C1622.57 1542.53 1620.92 1540.74 1619.84 1538.61C1544.31 1390.12 1378.49 1335.77 1252.7 1316.33C1141.86 1299.22 1041.58 1305.37 1005.69 1308.56L1028.42 1415.29C1028.81 1416.95 1028.86 1418.68 1028.57 1420.37C1028.28 1422.06 1027.66 1423.67 1026.74 1425.11C1025.82 1426.56 1024.62 1427.81 1023.22 1428.78C1021.81 1429.76 1020.22 1430.45 1018.55 1430.8C1016.87 1431.16 1015.14 1431.18 1013.46 1430.86C1011.78 1430.55 1010.18 1429.9 1008.75 1428.95C1007.32 1428.01 1006.09 1426.79 1005.14 1425.37C1004.19 1423.94 1003.53 1422.35 1003.2 1420.66L977.408 1299.86C977.034 1298.11 977.027 1296.31 977.389 1294.55C977.75 1292.8 978.472 1291.15 979.508 1289.69C980.547 1288.24 981.873 1287.02 983.404 1286.1C984.935 1285.19 986.637 1284.6 988.407 1284.37C993.491 1283.74 1114.39 1268.98 1255.99 1290.76C1339.56 1303.66 1412.74 1326.63 1473.39 1359.18C1550.07 1400.31 1607.04 1456.83 1642.71 1526.93C1644.26 1529.98 1644.53 1533.52 1643.47 1536.77C1642.41 1540.02 1640.1 1542.72 1637.05 1544.27C1635.29 1545.17 1633.34 1545.65 1631.36 1545.69Z"></path>
  <path fill="#000" d="M1631.34 1545.69C1628.57 1545.69 1625.87 1544.79 1623.64 1543.13C1621.42 1541.47 1619.79 1539.14 1619 1536.48C1576.82 1395.9 1486.82 1299.84 1351.48 1250.91C1249.69 1214.06 1159.01 1219.29 1158.03 1219.37C1154.61 1219.58 1151.25 1218.43 1148.68 1216.16C1146.11 1213.9 1144.54 1210.7 1144.33 1207.28C1144.11 1203.86 1145.26 1200.5 1147.53 1197.93C1149.8 1195.35 1152.99 1193.79 1156.41 1193.57C1160.28 1193.34 1252.58 1188.05 1359.28 1226.28C1422.23 1249.07 1476.93 1282.23 1521.9 1325.01C1578.15 1378.44 1619.12 1447.21 1643.7 1529.14C1644.28 1531.07 1644.39 1533.1 1644.04 1535.08C1643.69 1537.06 1642.88 1538.93 1641.68 1540.54C1640.48 1542.15 1638.92 1543.46 1637.13 1544.36C1635.33 1545.26 1633.35 1545.73 1631.34 1545.73V1545.69Z"></path>
  <path fill="#000" d="M1637.01 1545.69C1634.82 1545.69 1632.66 1545.13 1630.74 1544.06C1628.83 1542.99 1627.21 1541.44 1626.06 1539.58C1624.9 1537.71 1624.24 1535.58 1624.14 1533.39C1624.04 1531.19 1624.5 1529.01 1625.48 1527.04C1687.79 1401.76 1812.8 1304.8 1997.03 1238.93C2131.86 1190.72 2158.52 1177.2 2163.6 1174.08C2164.86 1172.73 2166.38 1171.67 2168.08 1170.96C2169.78 1170.25 2171.61 1169.92 2173.45 1169.98C2175.29 1170.03 2177.09 1170.48 2178.75 1171.3C2180.4 1172.11 2181.85 1173.27 2183.02 1174.69C2184.96 1177.08 2185.99 1180.07 2185.95 1183.15V1291.57C2185.95 1294.99 2184.59 1298.27 2182.17 1300.69C2179.75 1303.11 2176.47 1304.47 2173.05 1304.47C2169.63 1304.47 2166.35 1303.11 2163.93 1300.69C2161.52 1298.27 2160.16 1294.99 2160.16 1291.57V1204.48C2158.17 1205.37 2156.03 1206.32 2153.71 1207.28C2124.69 1219.7 2074.91 1238.6 2005.71 1263.29C1827.98 1326.83 1707.82 1419.45 1648.57 1538.6C1647.49 1540.73 1645.84 1542.53 1643.8 1543.78C1641.76 1545.04 1639.41 1545.7 1637.01 1545.69Z"></path>
  <path fill="#000" d="M1651.73 1550.72C1649.13 1550.72 1646.58 1549.93 1644.43 1548.46 1642.28 1546.98 1640.63 1544.89 1639.69 1542.45 1638.75 1540.02 1638.58 1537.35 1639.19 1534.82 1639.79 1532.28 1641.16 1529.99 1643.09 1528.24 1645.47 1526.11 1702.49 1475.13 1810.58 1416.82 1910.07 1363.15 2073.23 1293.17 2285.77 1264.6 2287.47 1264.33 2289.21 1264.4 2290.88 1264.8 2292.55 1265.21 2294.12 1265.95 2295.5 1266.98 2296.89 1268 2298.05 1269.3 2298.92 1270.78 2299.8 1272.26 2300.37 1273.9 2300.6 1275.61 2300.83 1277.31 2300.71 1279.05 2300.26 1280.71 2299.81 1282.37 2299.03 1283.93 2297.97 1285.28 2296.91 1286.64 2295.59 1287.77 2294.09 1288.6 2292.58 1289.44 2290.93 1289.97 2289.21 1290.15 2081.03 1318.16 1921.11 1386.58 1823.68 1439.05 1718.02 1495.95 1660.93 1546.91 1660.36 1547.4 1657.99 1549.54 1654.92 1550.72 1651.73 1550.72ZM1922.29 1849.02C1918.87 1849.02 1915.59 1847.66 1913.17 1845.24 1910.75 1842.82 1909.39 1839.54 1909.39 1836.12V1589.72C1909.39 1586.79 1910.4 1583.94 1912.24 1581.65 1914.07 1579.36 1916.64 1577.77 1919.51 1577.14L2251.13 1504C2253.02 1503.58 2254.97 1503.59 2256.85 1504.03 2258.73 1504.47 2260.49 1505.33 2261.99 1506.54 2263.5 1507.75 2264.71 1509.28 2265.55 1511.02 2266.38 1512.76 2266.81 1514.67 2266.81 1516.6V1604.04C2266.81 1607.46 2265.45 1610.74 2263.03 1613.16 2260.62 1615.57 2257.34 1616.93 2253.92 1616.93 2250.49 1616.93 2247.21 1615.57 2244.8 1613.16 2242.38 1610.74 2241.02 1607.46 2241.02 1604.04V1532.64L1935.18 1600.09V1820.87L2122.81 1789.23C2124.5 1788.9 2126.24 1788.91 2127.93 1789.26 2129.61 1789.62 2131.21 1790.3 2132.62 1791.28 2134.04 1792.26 2135.25 1793.51 2136.17 1794.97 2137.09 1796.42 2137.72 1798.04 2138 1799.74 2138.29 1801.44 2138.23 1803.18 2137.84 1804.85 2137.44 1806.53 2136.72 1808.11 2135.7 1809.5 2134.68 1810.89 2133.4 1812.06 2131.92 1812.95 2130.45 1813.83 2128.81 1814.41 2127.1 1814.66L1924.44 1848.83C1923.73 1848.96 1923.01 1849.02 1922.29 1849.02ZM1911.95 1938.83C1908.73 1938.83 1905.63 1937.61 1903.26 1935.44 1900.89 1933.26 1899.42 1930.27 1899.13 1927.06 1898.85 1923.86 1899.78 1920.66 1901.74 1918.1 1903.69 1915.54 1906.53 1913.81 1909.7 1913.24L2165.63 1867.94C2167.32 1867.59 2169.06 1867.58 2170.75 1867.92 2172.44 1868.26 2174.05 1868.93 2175.48 1869.9 2176.9 1870.86 2178.12 1872.11 2179.06 1873.55 2180 1875 2180.64 1876.62 2180.94 1878.32 2181.24 1880.02 2181.19 1881.76 2180.81 1883.44 2180.43 1885.12 2179.71 1886.71 2178.7 1888.11 2177.69 1889.51 2176.41 1890.69 2174.94 1891.59 2173.47 1892.48 2171.83 1893.07 2170.12 1893.33L1914.2 1938.63C1913.46 1938.76 1912.71 1938.83 1911.95 1938.83Z"></path>
  <path fill="#FFE015" d="M872.337 2266.87C870.096 2266.87 867.884 2266.36 865.87 2265.38 790.609 2228.75 577.723 2235.38 575.586 2235.46 573.643 2235.52 571.706 2235.2 569.887 2234.52 568.068 2233.83 566.401 2232.8 564.982 2231.47 562.116 2228.79 560.433 2225.07 560.303 2221.15 560.174 2217.23 561.608 2213.41 564.291 2210.55 566.974 2207.68 570.686 2206 574.609 2205.87 583.637 2205.57 796.984 2198.92 878.841 2238.75 881.915 2240.18 884.406 2242.61 885.895 2245.65 887.384 2248.69 887.78 2252.16 887.017 2255.46 886.254 2258.75 884.377 2261.69 881.704 2263.77 879.031 2265.85 875.723 2266.94 872.337 2266.87ZM487.907 2544C484.943 2544.03 482.038 2543.17 479.571 2541.53 477.104 2539.89 475.189 2537.54 474.077 2534.79 472.965 2532.04 472.707 2529.02 473.337 2526.13 473.967 2523.23 475.455 2520.59 477.608 2518.55 516.609 2482.14 558.432 2448.87 602.687 2419.07 701.954 2351.84 792.451 2316.02 871.673 2312.61 873.609 2312.53 875.542 2312.83 877.363 2313.49 879.184 2314.15 880.856 2315.17 882.284 2316.47 883.713 2317.78 884.87 2319.36 885.689 2321.12 886.508 2322.87 886.973 2324.77 887.057 2326.71 887.142 2328.64 886.845 2330.58 886.182 2332.4 885.52 2334.22 884.505 2335.89 883.196 2337.32 881.888 2338.75 880.31 2339.9 878.554 2340.72 876.799 2341.54 874.899 2342.01 872.963 2342.09 696.224 2349.72 500.14 2537.92 498.187 2539.82 495.436 2542.5 491.748 2544 487.907 2544ZM1671.93 620.43C1609.68 620.498 1550 645.254 1505.99 689.268 1461.97 733.281 1437.21 792.957 1437.14 855.203 1437.14 927.314 1473.01 996.735 1533.4 1042.15V1138.38C1533.4 1142.24 1534.16 1146.07 1535.64 1149.63 1537.12 1153.2 1539.3 1156.44 1542.04 1159.16 1544.78 1161.88 1548.03 1164.04 1551.61 1165.5 1555.18 1166.96 1559.01 1167.7 1562.88 1167.67L1762.65 1167.1C1770.4 1167.06 1777.82 1163.96 1783.3 1158.47 1788.77 1152.97 1791.85 1145.54 1791.87 1137.79V1048.82C1825.23 1026.43 1906.65 960.974 1906.65 855.203 1906.57 792.97 1881.82 733.305 1837.82 689.294 1793.82 645.282 1734.16 620.517 1671.93 620.43ZM1682.89 603.13C1678.08 603.13 1673.47 601.22 1670.07 597.821 1666.67 594.421 1664.76 589.81 1664.76 585.001V474.551C1664.91 469.845 1666.89 465.383 1670.27 462.107 1673.65 458.832 1678.17 457 1682.88 457 1687.59 457 1692.11 458.832 1695.49 462.107 1698.88 465.383 1700.85 469.845 1701 474.551V585.001C1701 589.806 1699.09 594.415 1695.7 597.814 1692.3 601.213 1687.7 603.126 1682.89 603.13ZM1393.82 832.56H1283.39C1280.96 832.638 1278.54 832.226 1276.28 831.351 1274.01 830.475 1271.94 829.153 1270.2 827.462 1268.45 825.772 1267.07 823.748 1266.12 821.511 1265.17 819.274 1264.68 816.87 1264.68 814.44 1264.68 812.011 1265.17 809.606 1266.12 807.37 1267.07 805.133 1268.45 803.109 1270.2 801.419 1271.94 799.728 1274.01 798.406 1276.28 797.53 1278.54 796.655 1280.96 796.243 1283.39 796.321H1393.82C1396.25 796.243 1398.67 796.655 1400.93 797.53 1403.2 798.406 1405.27 799.728 1407.01 801.419 1408.76 803.109 1410.14 805.133 1411.09 807.37 1412.04 809.606 1412.53 812.011 1412.53 814.44 1412.53 816.87 1412.04 819.274 1411.09 821.511 1410.14 823.748 1408.76 825.772 1407.01 827.462 1405.27 829.153 1403.2 830.475 1400.93 831.351 1398.67 832.226 1396.25 832.638 1393.82 832.56ZM1488.13 660.888C1483.43 660.9 1478.91 659.083 1475.53 655.822L1396.31 578.847C1393 575.468 1391.15 570.929 1391.14 566.2 1391.13 561.471 1392.97 556.926 1396.26 553.535 1399.56 550.143 1404.05 548.173 1408.78 548.046 1413.5 547.918 1418.09 549.643 1421.57 552.852L1500.79 629.826C1503.37 632.341 1505.15 635.57 1505.89 639.098 1506.63 642.627 1506.3 646.296 1504.94 649.637 1503.58 652.977 1501.26 655.837 1498.27 657.851 1495.28 659.865 1491.76 660.942 1488.15 660.944L1488.13 660.888ZM2060.47 839.747H1950.03C1947.61 839.824 1945.19 839.413 1942.92 838.537 1940.65 837.661 1938.59 836.339 1936.84 834.649 1935.1 832.959 1933.71 830.935 1932.76 828.698 1931.82 826.461 1931.33 824.056 1931.33 821.627 1931.33 819.198 1931.82 816.793 1932.76 814.556 1933.71 812.319 1935.1 810.295 1936.84 808.605 1938.59 806.915 1940.65 805.593 1942.92 804.717 1945.19 803.841 1947.61 803.43 1950.03 803.507H2060.47C2062.89 803.43 2065.31 803.841 2067.58 804.717 2069.85 805.593 2071.91 806.915 2073.66 808.605 2075.4 810.295 2076.79 812.319 2077.74 814.556 2078.68 816.793 2079.17 819.198 2079.17 821.627 2079.17 824.056 2078.68 826.461 2077.74 828.698 2076.79 830.935 2075.4 832.959 2073.66 834.649 2071.91 836.339 2069.85 837.661 2067.58 838.537 2065.31 839.413 2062.89 839.824 2060.47 839.747ZM1877.63 660.888C1874.02 660.883 1870.5 659.804 1867.52 657.788 1864.53 655.773 1862.21 652.913 1860.86 649.573 1859.5 646.233 1859.17 642.566 1859.91 639.039 1860.65 635.511 1862.43 632.285 1865.01 629.771L1944.23 552.796C1945.92 551.067 1947.94 549.694 1950.17 548.758 1952.4 547.822 1954.8 547.342 1957.22 547.347 1959.64 547.351 1962.03 547.839 1964.26 548.783 1966.49 549.727 1968.5 551.107 1970.19 552.842 1971.88 554.577 1973.2 556.632 1974.08 558.886 1974.96 561.14 1975.38 563.546 1975.31 565.965 1975.24 568.383 1974.7 570.764 1973.7 572.967 1972.7 575.17 1971.27 577.151 1969.49 578.792L1890.27 655.767C1886.88 659.052 1882.35 660.889 1877.63 660.888Z"></path>
  <path fill="#000" d="M1743.96 1264.29C1740.72 1264.26 1737.61 1263.02 1735.24 1260.8C1732.88 1258.58 1731.43 1255.55 1731.2 1252.31C1730.97 1249.08 1731.96 1245.88 1733.99 1243.34C1736.01 1240.81 1738.92 1239.13 1742.12 1238.64C1753.36 1236.96 1761.19 1232.41 1766.07 1224.69C1774.75 1210.86 1772.85 1188.82 1770.07 1174.95H1551.84C1550 1180.79 1548.95 1188.47 1552.39 1193.37C1555.19 1197.33 1566.06 1205.94 1606.52 1200.15C1609.91 1199.66 1613.35 1200.54 1616.09 1202.59C1618.83 1204.64 1620.64 1207.69 1621.13 1211.08C1621.62 1214.46 1620.75 1217.91 1618.7 1220.65C1616.65 1223.39 1613.59 1225.2 1610.21 1225.69C1569.44 1231.51 1543.61 1225.69 1531.26 1208.09C1516.19 1186.56 1530.19 1159.03 1531.83 1155.95C1532.94 1153.9 1534.58 1152.18 1536.58 1150.98C1538.58 1149.79 1540.87 1149.16 1543.2 1149.16H1780.02C1782.76 1149.16 1785.43 1150.03 1787.64 1151.65C1789.85 1153.27 1791.48 1155.55 1792.31 1158.17C1792.93 1160.14 1807.43 1206.93 1787.89 1238.24C1778.93 1252.59 1764.78 1261.26 1745.86 1264.03C1745.24 1264.16 1744.6 1264.25 1743.96 1264.29Z"></path>
  <path fill="#000" d="M1658.87 1334.61C1627.55 1334.61 1609.71 1324 1599.91 1314.34 1594.67 1309.24 1590.47 1303.17 1587.57 1296.45 1578.73 1294.91 1570.85 1289.98 1565.59 1282.73 1550.5 1261.78 1561.42 1227.05 1562.73 1223.16 1563.87 1219.99 1566.2 1217.39 1569.23 1215.92 1572.26 1214.45 1575.75 1214.22 1578.94 1215.28 1582.14 1216.35 1584.79 1218.62 1586.33 1221.61 1587.88 1224.61 1588.19 1228.09 1587.2 1231.31 1584.45 1239.69 1580.68 1259.57 1586.53 1267.68 1587.31 1268.74 1589.35 1271.58 1597.22 1271.58 1600.32 1271.48 1603.35 1272.55 1605.71 1274.57 1608.06 1276.58 1609.58 1279.41 1609.97 1282.49 1610.71 1286.17 1617.91 1313.11 1670.77 1308.28 1703.69 1305.22 1720.27 1298.87 1728.4 1294.06L1733.78 1290.58V1267.84C1733.78 1263.05 1733.78 1259.28 1714.89 1259.28H1714.63L1631.99 1257.67C1628.56 1257.61 1625.31 1256.19 1622.94 1253.73 1620.56 1251.26 1619.26 1247.96 1619.33 1244.54 1619.39 1241.12 1620.81 1237.86 1623.27 1235.49 1625.74 1233.11 1629.04 1231.82 1632.46 1231.88L1715.02 1233.46C1744.5 1233.46 1759.57 1245.05 1759.57 1267.82V1293.91C1759.56 1295.16 1759.38 1296.4 1759.02 1297.6 1756.92 1304.41 1744.57 1327.18 1673.16 1333.82 1668.1 1334.41 1663.34 1334.61 1658.87 1334.61ZM1638.54 1160.72C1635.23 1160.73 1632.04 1159.46 1629.64 1157.17 1627.24 1154.89 1625.81 1151.77 1625.65 1148.45 1624.23 1119.36 1612.16 862.997 1626.18 816.624 1635.54 785.636 1651.24 768.225 1669.29 768.888 1686.3 769.496 1699.07 785.138 1707.3 815.445 1716.43 812.398 1726.05 811.146 1735.66 811.76 1759.09 813.013 1770.79 823.975 1776.46 832.948 1794 860.583 1777.46 903.179 1775.52 907.932 1774.23 911.109 1771.73 913.641 1768.57 914.973 1765.41 916.305 1761.85 916.327 1758.68 915.035 1755.5 913.742 1752.97 911.241 1751.64 908.081 1750.3 904.922 1750.28 901.362 1751.57 898.186 1755.26 889.288 1763.48 860.694 1754.61 846.729 1753.29 844.647 1749.25 838.328 1734.22 837.517 1727.05 836.999 1719.86 838.127 1713.2 840.815 1722.41 882.839 1724.66 899.586 1717.05 911.157 1713.23 916.96 1707.39 920.516 1699.21 922.045 1693.52 923.315 1687.57 922.878 1682.12 920.787 1676.67 918.697 1671.96 915.045 1668.57 910.291 1657.52 895.128 1658.04 869.39 1669.81 847.65 1673.53 840.717 1678.38 834.452 1684.16 829.116 1677.01 797.795 1668.46 794.626 1668.37 794.608 1666.18 794.608 1657.58 801.977 1650.89 824.086 1640.13 859.717 1647.63 1069.4 1651.42 1147.18 1651.51 1148.88 1651.26 1150.57 1650.69 1152.16 1650.12 1153.76 1649.24 1155.23 1648.1 1156.48 1646.96 1157.74 1645.59 1158.76 1644.05 1159.48 1642.52 1160.21 1640.86 1160.62 1639.17 1160.71L1638.54 1160.72ZM1691.38 862.168C1684.6 876.17 1685.86 890.117 1689.41 895.146 1690.33 896.418 1691.25 897.339 1694.46 896.731 1694.98 896.639 1695.36 896.547 1695.64 896.473 1696.84 891.756 1694.77 878.27 1691.38 862.168Z"></path>
</svg>
