<svg xmlns="http://www.w3.org/2000/svg" width="3000" height="3000" fill="none" viewBox="0 0 3000 3000" id="online-education">
  <path fill="#AB66FE" d="M2155.88 833.565L1722.39 588.692C1719.61 587.113 1716.34 586.617 1713.21 587.298L1218.11 695.576C1215.54 696.143 1213.2 697.476 1211.4 699.401C1209.6 701.325 1208.43 703.75 1208.04 706.355C1207.65 708.96 1208.06 711.622 1209.21 713.99C1210.36 716.358 1212.21 718.319 1214.5 719.615L1456.83 856.525L1436.27 976.926C1435.9 979.09 1436.08 981.312 1436.8 983.386C1437.52 985.46 1438.75 987.319 1440.38 988.788C1442.01 990.258 1443.99 991.291 1446.13 991.791C1448.26 992.292 1450.49 992.243 1452.61 991.651C1504.5 977.115 1558.73 972.858 1612.26 979.12L1615.23 979.454C1694.01 988.436 1768.56 1019.81 1830.06 1069.87C1831.82 1071.3 1833.93 1072.25 1836.18 1072.62C1838.42 1072.98 1840.72 1072.76 1842.85 1071.96C1844.98 1071.16 1846.86 1069.82 1848.31 1068.06C1849.76 1066.31 1850.72 1064.21 1851.1 1061.96L1875.68 918.083L2152.16 857.604C2154.74 857.053 2157.09 855.731 2158.9 853.813C2160.72 851.896 2161.9 849.473 2162.31 846.866C2162.71 844.259 2162.31 841.59 2161.16 839.215C2160.01 836.84 2158.17 834.869 2155.88 833.565Z"></path>
  <path fill="#000" d="M2322.09 1062.26C2196.47 1061.74 2139.3 857.024 2136.92 848.304C2136.01 844.974 2136.46 841.419 2138.18 838.422C2139.89 835.425 2142.72 833.232 2146.05 832.325C2149.39 831.418 2152.94 831.871 2155.94 833.584C2158.93 835.298 2161.13 838.132 2162.03 841.463C2162.63 843.694 2216.4 1035.78 2322.2 1036.23C2325.65 1036.23 2328.96 1037.6 2331.4 1040.04C2333.85 1042.48 2335.22 1045.79 2335.22 1049.24C2335.22 1052.7 2333.85 1056.01 2331.4 1058.45C2328.96 1060.89 2325.65 1062.26 2322.2 1062.26H2322.09Z"></path>
  <path fill="#AB66FE" d="M2421.24 1042.7L2408.23 1021.3C2405.61 1017.01 2402.18 1013.27 2398.12 1010.3C2394.07 1007.34 2389.46 1005.2 2384.58 1004.01C2379.69 1002.82 2374.62 1002.61 2369.66 1003.38C2364.69 1004.15 2359.92 1005.9 2355.63 1008.51L2327.74 1025.47C2319.08 1030.75 2312.87 1039.26 2310.47 1049.12C2308.07 1058.98 2309.68 1069.39 2314.95 1078.06L2327.97 1099.44C2330.58 1103.74 2334.01 1107.48 2338.07 1110.45C2342.12 1113.42 2346.73 1115.56 2351.61 1116.75C2356.5 1117.93 2361.57 1118.15 2366.54 1117.37C2371.5 1116.6 2376.27 1114.85 2380.56 1112.24L2408.45 1095.28C2412.74 1092.67 2416.48 1089.24 2419.44 1085.18C2422.41 1081.12 2424.55 1076.52 2425.73 1071.64C2426.92 1066.76 2427.14 1061.69 2426.37 1056.72C2425.59 1051.76 2423.85 1046.99 2421.24 1042.7Z"></path>
  <path fill="#000" d="M2542.72 1174.05C2542.15 1174.05 2541.59 1174.02 2541.03 1173.94C2439.91 1160.82 2395.79 1095.13 2393.97 1092.34C2393.03 1090.92 2392.38 1089.32 2392.06 1087.64C2391.74 1085.96 2391.75 1084.23 2392.1 1082.56C2392.44 1080.89 2393.12 1079.3 2394.08 1077.88C2395.04 1076.47 2396.27 1075.26 2397.69 1074.32C2399.12 1073.38 2400.72 1072.73 2402.4 1072.41C2404.08 1072.09 2405.8 1072.1 2407.48 1072.45C2409.15 1072.8 2410.74 1073.47 2412.15 1074.43C2413.57 1075.39 2414.78 1076.62 2415.72 1078.05C2416.16 1078.7 2455.67 1136.63 2544.37 1148.14C2547.65 1148.57 2550.63 1150.23 2552.73 1152.78C2554.82 1155.33 2555.87 1158.58 2555.66 1161.87C2555.45 1165.16 2554 1168.25 2551.59 1170.52C2549.19 1172.78 2546.02 1174.04 2542.72 1174.05Z"></path>
  <path fill="#000" d="M2532.23 1248.25C2531.66 1248.25 2531.09 1248.21 2530.52 1248.14C2424.94 1234.23 2382.68 1108.16 2380.92 1102.81C2379.84 1099.53 2380.12 1095.95 2381.68 1092.87C2383.24 1089.79 2385.96 1087.46 2389.24 1086.39C2392.53 1085.32 2396.1 1085.59 2399.18 1087.15C2402.26 1088.72 2404.59 1091.44 2405.66 1094.72C2406.05 1095.87 2444.7 1210.58 2533.94 1222.33C2537.22 1222.76 2540.21 1224.43 2542.3 1226.98C2544.4 1229.53 2545.45 1232.79 2545.23 1236.08C2545.02 1239.38 2543.55 1242.47 2541.14 1244.73C2538.73 1246.99 2535.56 1248.25 2532.25 1248.25H2532.23Z"></path>
  <path fill="#000" d="M2455.95 1297.64C2453.77 1297.64 2451.62 1297.08 2449.7 1296.02C2356.39 1244.71 2362.82 1111.96 2363.14 1106.25C2363.34 1102.8 2364.89 1099.57 2367.47 1097.27C2370.05 1094.96 2373.44 1093.78 2376.89 1093.97C2380.34 1094.17 2383.57 1095.73 2385.88 1098.3C2388.18 1100.88 2389.36 1104.27 2389.17 1107.72C2389.17 1109.43 2383.59 1229.94 2462.29 1273.19C2464.82 1274.58 2466.81 1276.78 2467.96 1279.43C2469.1 1282.08 2469.33 1285.03 2468.61 1287.83C2467.89 1290.63 2466.26 1293.1 2463.98 1294.87C2461.7 1296.64 2458.89 1297.6 2456.01 1297.6L2455.95 1297.64Z"></path>
  <path fill="#000" d="M2360.78 1117.89C2354.2 1117.9 2347.73 1116.22 2341.99 1113 2336.26 1109.78 2331.44 1105.14 2328.02 1099.52L2315.01 1078.14C2309.74 1069.47 2308.13 1059.06 2310.53 1049.2 2312.92 1039.34 2319.14 1030.83 2327.8 1025.54 2330.76 1023.75 2334.31 1023.2 2337.67 1024.03 2341.03 1024.85 2343.93 1026.97 2345.72 1029.93 2347.52 1032.89 2348.06 1036.44 2347.24 1039.8 2346.42 1043.16 2344.29 1046.06 2341.33 1047.85 2338.59 1049.54 2336.62 1052.25 2335.85 1055.38 2335.09 1058.51 2335.59 1061.82 2337.24 1064.59L2350.26 1085.97C2351.95 1088.71 2354.65 1090.68 2357.78 1091.45 2360.92 1092.22 2364.22 1091.72 2366.99 1090.06L2394.88 1073.1C2397.84 1071.31 2401.39 1070.76 2404.75 1071.58 2408.11 1072.41 2411 1074.53 2412.8 1077.49 2414.59 1080.45 2415.14 1084 2414.32 1087.36 2413.5 1090.72 2411.37 1093.62 2408.41 1095.41L2380.52 1112.37C2374.57 1115.98 2367.74 1117.89 2360.78 1117.89ZM1449.09 992.13C1448.35 992.132 1447.61 992.07 1446.88 991.944 1445.2 991.656 1443.59 991.039 1442.14 990.128 1440.69 989.217 1439.44 988.031 1438.45 986.636 1437.47 985.241 1436.76 983.665 1436.38 981.998 1436.01 980.332 1435.96 978.607 1436.25 976.922L1473.56 758.469C1477.48 735.508 1504.52 716.154 1547.71 705.426 1590.47 694.81 1642.39 693.825 1694.13 702.675 1745.88 711.524 1796.04 729.912 1834.67 754.36 1874.79 779.738 1894.7 806.417 1890.74 829.749 1890.45 831.434 1889.84 833.046 1888.93 834.492 1888.02 835.938 1886.83 837.19 1885.43 838.178 1884.04 839.165 1882.46 839.869 1880.8 840.247 1879.13 840.626 1877.4 840.672 1875.72 840.384 1874.04 840.096 1872.42 839.479 1870.98 838.568 1869.53 837.657 1868.28 836.47 1867.29 835.075 1866.3 833.68 1865.6 832.105 1865.22 830.438 1864.84 828.771 1864.8 827.047 1865.09 825.362 1866.65 816.252 1853.43 797.028 1820.74 776.354 1785.42 754.044 1737.71 736.53 1689.75 728.331 1641.41 720.077 1593.26 720.895 1554.03 730.674 1518.7 739.468 1500.84 753.523 1499.24 762.856L1461.92 981.31C1461.4 984.337 1459.83 987.084 1457.49 989.064 1455.14 991.044 1452.17 992.13 1449.09 992.13Z"></path>
  <path fill="#000" d="M2149.41 857.903C2147.17 857.905 2144.97 857.329 2143.01 856.23L1713.92 613.793 1223.69 721.012C1220.31 721.752 1216.79 721.121 1213.88 719.259 1210.97 717.398 1208.92 714.457 1208.18 711.084 1207.44 707.711 1208.07 704.183 1209.93 701.275 1211.8 698.367 1214.74 696.318 1218.11 695.578L1713.21 587.318C1716.34 586.632 1719.61 587.122 1722.39 588.694L2155.88 833.567C2158.38 834.984 2160.34 837.188 2161.46 839.836 2162.57 842.484 2162.78 845.427 2162.05 848.206 2161.32 850.985 2159.68 853.443 2157.41 855.197 2155.13 856.951 2152.34 857.903 2149.47 857.903H2149.41ZM1417.21 1426.14C1415.6 1426.13 1413.99 1426.04 1412.39 1425.86L1394.73 1423.83C1383.68 1422.55 1373.6 1416.93 1366.69 1408.22 1359.78 1399.5 1356.61 1388.4 1357.88 1377.35L1374.17 1236.05C1375.45 1225.01 1381.07 1214.92 1389.78 1208.01 1398.5 1201.11 1409.6 1197.95 1420.65 1199.22L1438.31 1201.25C1449.36 1202.53 1459.44 1208.15 1466.35 1216.86 1473.26 1225.58 1476.42 1236.68 1475.14 1247.73L1458.87 1389.03C1457.68 1399.24 1452.78 1408.66 1445.1 1415.5 1437.42 1422.34 1427.49 1426.13 1417.21 1426.14ZM1415.35 1400.11C1419.53 1400.58 1423.73 1399.37 1427.03 1396.76 1430.32 1394.14 1432.45 1390.32 1432.94 1386.14L1449.21 1244.85C1449.69 1240.67 1448.49 1236.47 1445.87 1233.17 1443.26 1229.87 1439.44 1227.74 1435.26 1227.26L1417.6 1225.23C1415.53 1224.99 1413.43 1225.16 1411.43 1225.73 1409.42 1226.3 1407.55 1227.26 1405.91 1228.56 1404.28 1229.85 1402.92 1231.46 1401.91 1233.28 1400.89 1235.1 1400.25 1237.11 1400.01 1239.18L1383.73 1380.47C1383.49 1382.55 1383.66 1384.64 1384.23 1386.65 1384.8 1388.65 1385.77 1390.53 1387.06 1392.16 1388.36 1393.79 1389.97 1395.16 1391.79 1396.17 1393.61 1397.18 1395.62 1397.82 1397.69 1398.06L1415.35 1400.11ZM1727.82 1461.93C1726.19 1461.93 1724.57 1461.83 1722.95 1461.65L1705.29 1459.6C1699.82 1458.97 1694.52 1457.27 1689.71 1454.59 1684.89 1451.91 1680.66 1448.31 1677.23 1444 1673.81 1439.68 1671.27 1434.73 1669.76 1429.44 1668.26 1424.14 1667.81 1418.59 1668.44 1413.12L1684.73 1271.82C1685.36 1266.35 1687.06 1261.06 1689.74 1256.25 1692.42 1251.44 1696.02 1247.2 1700.34 1243.78 1704.65 1240.36 1709.6 1237.82 1714.9 1236.32 1720.19 1234.81 1725.74 1234.36 1731.21 1234.99L1748.87 1237.04C1759.91 1238.32 1770 1243.94 1776.91 1252.65 1783.81 1261.37 1786.98 1272.47 1785.7 1283.52L1769.43 1424.82C1768.26 1435.03 1763.38 1444.45 1755.72 1451.31 1748.06 1458.16 1738.16 1461.97 1727.88 1462L1727.82 1461.93ZM1725.96 1435.79C1728.03 1436.02 1730.13 1435.85 1732.14 1435.28 1734.14 1434.71 1736.02 1433.74 1737.65 1432.45 1739.28 1431.15 1740.64 1429.55 1741.66 1427.72 1742.67 1425.9 1743.31 1423.89 1743.55 1421.82L1759.82 1280.53C1760.3 1276.34 1759.1 1272.14 1756.49 1268.84 1753.87 1265.54 1750.06 1263.41 1745.88 1262.92L1728.21 1260.89C1726.14 1260.65 1724.04 1260.82 1722.03 1261.39 1720.03 1261.96 1718.15 1262.92 1716.52 1264.22 1714.88 1265.52 1713.52 1267.12 1712.51 1268.95 1711.5 1270.77 1710.86 1272.78 1710.63 1274.86L1694.34 1416.15C1693.86 1420.34 1695.06 1424.54 1697.68 1427.84 1700.3 1431.14 1704.12 1433.27 1708.3 1433.76L1725.96 1435.79ZM1567.28 1483.57C1564.9 1483.57 1562.51 1483.43 1560.14 1483.16L1545.42 1481.47C1529.11 1479.58 1514.22 1471.3 1504.02 1458.44 1493.82 1445.57 1489.14 1429.19 1491.02 1412.88L1504.24 1298.08C1504.43 1296.38 1504.96 1294.73 1505.79 1293.24 1506.62 1291.75 1507.73 1290.43 1509.07 1289.37 1510.41 1288.3 1511.94 1287.51 1513.59 1287.04 1515.23 1286.57 1516.95 1286.43 1518.65 1286.62L1630.51 1299.53C1633.94 1299.92 1637.07 1301.66 1639.21 1304.36 1641.36 1307.07 1642.34 1310.51 1641.95 1313.93L1628.73 1428.74C1626.97 1443.81 1619.75 1457.72 1608.42 1467.83 1597.1 1477.93 1582.46 1483.53 1567.28 1483.57ZM1563.12 1457.3C1572.58 1458.37 1582.08 1455.65 1589.54 1449.72 1596.99 1443.8 1601.78 1435.15 1602.87 1425.69L1614.6 1323.81 1528.61 1313.9 1516.86 1415.78C1515.79 1425.24 1518.52 1434.74 1524.44 1442.19 1530.37 1449.65 1539.01 1454.44 1548.47 1455.53L1563.12 1457.3Z"></path>
  <path fill="#000" d="M1736 1616.58C1735.5 1616.58 1735 1616.54 1734.5 1616.49L1282.72 1564.43C1276.04 1563.66 1269.58 1561.58 1263.7 1558.32C1257.83 1555.05 1252.65 1550.66 1248.48 1545.39C1244.3 1540.13 1241.2 1534.09 1239.35 1527.63C1237.51 1521.16 1236.95 1514.4 1237.72 1507.72L1261.32 1302.86C1268.03 1245.21 1297.33 1192.57 1342.8 1156.5C1388.28 1120.43 1446.2 1103.87 1503.87 1110.45L1690.86 1132C1748.5 1138.71 1801.12 1168 1837.2 1213.45C1873.27 1258.9 1889.84 1316.8 1883.29 1374.46L1862.35 1556.21C1862.16 1557.91 1861.63 1559.55 1860.8 1561.05C1859.97 1562.54 1858.85 1563.86 1857.51 1564.92C1856.17 1565.98 1854.64 1566.77 1853 1567.24C1851.35 1567.71 1849.63 1567.85 1847.93 1567.65C1846.24 1567.46 1844.59 1566.93 1843.1 1566.1C1841.61 1565.27 1840.29 1564.15 1839.23 1562.82C1838.16 1561.48 1837.38 1559.94 1836.91 1558.3C1836.44 1556.65 1836.3 1554.93 1836.49 1553.24L1857.43 1371.48C1863.22 1320.67 1848.63 1269.64 1816.85 1229.58C1785.06 1189.52 1738.68 1163.7 1687.89 1157.79L1500.89 1136.3C1450.08 1130.5 1399.05 1145.09 1358.99 1176.88C1318.92 1208.66 1293.11 1255.04 1287.2 1305.84L1263.59 1510.7C1262.83 1517.33 1264.74 1523.99 1268.88 1529.21C1273.03 1534.44 1279.08 1537.81 1285.71 1538.59L1737.49 1590.64C1740.94 1590.84 1744.17 1592.4 1746.48 1594.97C1748.78 1597.55 1749.96 1600.94 1749.77 1604.39C1749.58 1607.84 1748.02 1611.08 1745.44 1613.38C1742.86 1615.68 1739.47 1616.87 1736.02 1616.67L1736 1616.58Z"></path>
  <path fill="#000" d="M1106.45 1633.27C1105.94 1633.27 1105.44 1633.24 1104.94 1633.18 1103.24 1632.98 1101.6 1632.45 1100.11 1631.62 1098.61 1630.79 1097.3 1629.67 1096.24 1628.33 1095.17 1626.99 1094.39 1625.46 1093.92 1623.81 1093.45 1622.17 1093.31 1620.45 1093.51 1618.75L1125.41 1341.86C1132.05 1284.19 1149.99 1228.38 1178.2 1177.64 1206.41 1126.9 1244.34 1082.21 1289.83 1046.13 1335.31 1010.04 1387.46 983.273 1443.29 967.345 1499.12 951.417 1557.54 946.642 1615.21 953.294L1618.19 953.628C1734.66 967.063 1841.04 1026.21 1913.91 1118.07 1986.78 1209.93 2020.17 1326.97 2006.75 1443.45L1997.27 1525.83C1997.08 1527.53 1996.55 1529.17 1995.72 1530.66 1994.88 1532.16 1993.77 1533.47 1992.43 1534.53 1991.09 1535.59 1989.55 1536.38 1987.91 1536.85 1986.26 1537.32 1984.54 1537.46 1982.85 1537.26 1981.15 1537.07 1979.51 1536.54 1978.01 1535.7 1976.52 1534.87 1975.2 1533.76 1974.14 1532.42 1973.08 1531.08 1972.29 1529.54 1971.82 1527.9 1971.36 1526.25 1971.22 1524.53 1971.41 1522.83L1980.89 1440.45C1987.15 1386.17 1982.66 1331.19 1967.67 1278.65 1952.68 1226.1 1927.49 1177.02 1893.53 1134.21 1859.58 1091.41 1817.52 1055.71 1769.77 1029.15 1722.01 1002.6 1669.49 985.709 1615.21 979.452L1612.24 979.099C1384.32 952.829 1177.52 1116.92 1151.16 1344.84L1119.35 1621.72C1118.99 1624.9 1117.48 1627.83 1115.1 1629.95 1112.72 1632.08 1109.64 1633.26 1106.45 1633.27ZM1443.57 1810.69C1443.07 1810.72 1442.57 1810.72 1442.07 1810.69L1248.92 1788.38C1245.49 1787.99 1242.35 1786.25 1240.21 1783.55 1238.06 1780.84 1237.08 1777.4 1237.47 1773.97 1237.87 1770.54 1239.61 1767.4 1242.31 1765.26 1245.02 1763.11 1248.46 1762.13 1251.89 1762.52L1445.06 1784.83C1448.51 1785.03 1451.74 1786.59 1454.04 1789.17 1456.35 1791.75 1457.53 1795.14 1457.33 1798.59 1457.13 1802.04 1455.57 1805.27 1452.99 1807.58 1450.41 1809.88 1447.02 1811.06 1443.57 1810.86V1810.69ZM907.199 2230.64C904.801 2230.64 902.402 2230.64 900.023 2230.36 872.86 2228.19 847.296 2213.91 821.844 2186.67 775.476 2137.05 749.466 1987.63 745.729 1964.87L664.186 1835.99C661.459 1831.61 660.488 1826.37 661.467 1821.3 662.446 1816.24 665.304 1811.73 669.466 1808.68 682.703 1799.03 728.067 1769.49 755.248 1794.66 774.677 1812.66 794.291 1856.24 803.922 1879.67 829.244 1864.57 884.406 1835.31 924.415 1839.88 951.485 1843.02 965.317 1856.61 972.029 1867.58 983.333 1885.78 983.184 1908.84 978.257 1922.58 971.359 1941.85 915.528 2011.82 866.706 2005.1 864.992 2004.9 863.335 2004.35 861.833 2003.5 860.332 2002.65 859.014 2001.51 857.958 2000.14 856.902 1998.78 856.129 1997.21 855.683 1995.54 855.237 1993.88 855.127 1992.14 855.36 1990.43 855.593 1988.71 856.164 1987.07 857.041 1985.58 857.917 1984.09 859.08 1982.79 860.463 1981.76 861.846 1980.72 863.421 1979.98 865.096 1979.56 866.771 1979.14 868.513 1979.06 870.22 1979.32 902.31 1983.69 949.663 1925.18 953.734 1913.8 955.594 1908.35 957.323 1893.26 949.904 1881.32 944.439 1872.54 934.864 1867.3 921.403 1865.74 885.819 1861.56 825.154 1896.16 804.796 1909.9 803.163 1910.99 801.303 1911.7 799.356 1911.98 797.409 1912.25 795.425 1912.08 793.554 1911.48 791.682 1910.87 789.972 1909.85 788.551 1908.49 787.129 1907.14 786.035 1905.47 785.349 1903.63 778.135 1884.28 755.472 1830.42 737.568 1813.83 729.294 1806.17 707.728 1814.24 689.099 1826.85L769.155 1953.27C770.106 1954.77 770.739 1956.46 771.014 1958.22 771.275 1959.85 797.043 2122.16 840.864 2168.97 881.319 2212.25 917.499 2216.05 965.726 2181.99 992.201 2163.39 1033.44 2126.47 1012.21 2089.38 1006.24 2078.93 1002.04 2072.33 999.191 2068.22 974.799 2086.82 932.874 2116.56 912.461 2116.56H911.661C909.952 2116.49 908.273 2116.09 906.72 2115.37 905.168 2114.65 903.771 2113.64 902.611 2112.38 901.451 2111.13 900.55 2109.65 899.959 2108.05 899.368 2106.44 899.099 2104.74 899.167 2103.03 899.236 2101.32 899.64 2099.64 900.357 2098.09 901.075 2096.53 902.091 2095.14 903.347 2093.98 904.604 2092.82 906.077 2091.92 907.682 2091.32 909.287 2090.73 910.993 2090.47 912.702 2090.53 921.738 2090.53 958.234 2067.57 992.35 2040.56L992.61 2040.34C994.147 2039.21 995.906 2038.41 997.77 2038.01 999.635 2037.61 1001.56 2037.6 1003.43 2037.99 1009.47 2039.24 1015.63 2042.86 1034.83 2076.46 1057.77 2116.62 1038.05 2162.84 980.711 2203.26 954.664 2221.64 930.532 2230.64 907.199 2230.64Z"></path>
  <path fill="#000" d="M1005.38 2059.68C1003.58 2059.68 1001.8 2059.3 1000.16 2058.56 997.001 2057.17 994.525 2054.58 993.273 2051.37 992.022 2048.16 992.097 2044.58 993.484 2041.42 1021.37 1977.85 958.401 1937.68 955.705 1935.98 952.864 1934.13 950.86 1931.24 950.121 1927.92 949.381 1924.61 949.965 1921.14 951.747 1918.25 953.529 1915.37 956.369 1913.29 959.661 1912.46 962.953 1911.64 966.437 1912.13 969.37 1913.84 984.008 1923.53 996.734 1935.84 1006.91 1950.15 1029.09 1981.61 1032.66 2016.8 1017.24 2051.89 1016.23 2054.19 1014.57 2056.16 1012.47 2057.54 1010.36 2058.92 1007.9 2059.66 1005.38 2059.68ZM919.897 1531.28C917.616 1531.27 915.375 1530.67 913.4 1529.53 911.425 1528.39 909.784 1526.75 908.643 1524.77 907.502 1522.8 906.9 1520.55 906.898 1518.27 906.896 1515.99 907.493 1513.75 908.631 1511.77 912.87 1504.34 1013.93 1331.06 1139.54 1303.54 1141.21 1303.18 1142.94 1303.14 1144.62 1303.45 1146.3 1303.75 1147.91 1304.38 1149.35 1305.3 1150.79 1306.22 1152.03 1307.42 1153.01 1308.82 1153.99 1310.22 1154.68 1311.8 1155.05 1313.47 1155.41 1315.14 1155.45 1316.87 1155.15 1318.55 1154.84 1320.23 1154.22 1321.84 1153.29 1323.28 1152.37 1324.72 1151.18 1325.97 1149.77 1326.94 1148.37 1327.92 1146.79 1328.61 1145.12 1328.98 1030.78 1354 932.168 1523.06 931.183 1524.77 930.039 1526.75 928.394 1528.39 926.413 1529.54 924.432 1530.68 922.184 1531.28 919.897 1531.28ZM1031.08 1579.43C1028.81 1579.42 1026.58 1578.83 1024.62 1577.7 1022.65 1576.57 1021.02 1574.95 1019.87 1572.99 1018.73 1571.04 1018.11 1568.82 1018.09 1566.55 1018.06 1564.29 1018.63 1562.05 1019.74 1560.07 1025.31 1549.96 1076.2 1461.05 1122.19 1454.58 1123.89 1454.34 1125.62 1454.44 1127.28 1454.86 1128.94 1455.29 1130.5 1456.03 1131.87 1457.06 1133.24 1458.09 1134.4 1459.38 1135.27 1460.85 1136.15 1462.33 1136.72 1463.96 1136.97 1465.66 1137.21 1467.35 1137.11 1469.08 1136.69 1470.74 1136.27 1472.4 1135.52 1473.96 1134.49 1475.33 1133.46 1476.71 1132.17 1477.86 1130.7 1478.74 1129.22 1479.61 1127.59 1480.18 1125.89 1480.43 1100.74 1483.96 1061.42 1538.97 1042.53 1572.81 1041.39 1574.84 1039.72 1576.52 1037.71 1577.68 1035.69 1578.85 1033.4 1579.45 1031.08 1579.43ZM2132.64 2197.4C2102.13 2197.4 2069 2192.53 2049.18 2166.11 2019.9 2127.07 2022.06 2094.24 2022.17 2092.86 2022.3 2091.15 2022.76 2089.48 2023.54 2087.96 2024.31 2086.43 2025.38 2085.07 2026.68 2083.95 2027.98 2082.83 2029.49 2081.98 2031.12 2081.45 2032.75 2080.92 2034.47 2080.71 2036.18 2080.84 2037.89 2080.97 2039.55 2081.44 2041.08 2082.21 2042.61 2082.99 2043.97 2084.05 2045.09 2085.36 2046.2 2086.66 2047.05 2088.16 2047.59 2089.79 2048.12 2091.42 2048.33 2093.14 2048.2 2094.85 2048.2 2095.72 2047.08 2119.82 2070.08 2150.49 2087.83 2174.18 2127.3 2172.14 2159 2170.48 2166.44 2170.09 2173.41 2169.74 2179.68 2169.74 2205.71 2169.74 2224.45 2080.61 2224.45 2020.52 2224.45 1996.11 2226.03 1978.07 2229.5 1938.57 2233.22 1896.74 2238.8 1833.54 2246.68 1715.19 2252.82 1624.09 2215.08 1548.55 2134.57 1490.58 2096.6 1463.6 2054.42 1443.1 2009.75 1429.91 2006.41 1429.05 2003.54 1426.9 2001.79 1423.93 2000.03 1420.96 1999.53 1417.41 2000.39 1414.06 2001.25 1410.72 2003.4 1407.86 2006.37 1406.1 2009.35 1404.35 2012.89 1403.84 2016.24 1404.7 2019.03 1405.43 2084.91 1422.76 2149.78 1469.44 2236.85 1532.13 2279.35 1617.71 2272.65 1716.92 2264.68 1835.55 2259.1 1898.91 2255.42 1940.84 2252.02 1979.58 2250.47 1997.26 2250.47 2020.52 2250.13 2055.17 2245.73 2089.66 2237.35 2123.28 2224.73 2171.37 2205.32 2195.78 2179.71 2195.78 2174.14 2195.78 2167.44 2196.14 2160.4 2196.49 2151.66 2196.92 2142.27 2197.4 2132.64 2197.4Z"></path>
  <path fill="#000" d="M2086.03 2103.62C2067.59 2103.62 2048.85 2100.59 2033.82 2091.54C2017.67 2081.76 2007.8 2066.64 2004.71 2046.6C2002.05 2029.68 2000.49 2017.08 2000.04 2009.12C1999.69 2002.46 1999.73 1996.59 2003.97 1992.11C2005.35 1990.65 2007.05 1989.53 2008.93 1988.82C2010.82 1988.12 2012.84 1987.86 2014.84 1988.06C2016.54 1988.23 2018.19 1988.74 2019.7 1989.55C2021.2 1990.36 2022.53 1991.46 2023.61 1992.79C2024.69 1994.11 2025.5 1995.64 2025.99 1997.28C2026.48 1998.92 2026.64 2000.63 2026.46 2002.33C2026.37 2003.2 2026.19 2004.05 2025.94 2004.88C2025.94 2007.6 2026.35 2016.63 2030.42 2042.55C2032.28 2054.84 2037.86 2063.58 2047.28 2069.26C2075.45 2086.3 2131.34 2073.19 2150.49 2066.72C2153.75 2065.64 2157.3 2065.9 2160.38 2067.43C2163.45 2068.97 2165.79 2071.65 2166.89 2074.9C2167.99 2078.16 2167.76 2081.71 2166.25 2084.8C2164.75 2087.88 2162.08 2090.24 2158.84 2091.37C2156.66 2092.1 2122.02 2103.62 2086.03 2103.62Z"></path>
  <path fill="#000" d="M2041.35 2003.24C2014.02 2003.24 1996.85 1995.45 1989.17 1979.76C1972.84 1946.3 1969.22 1914.84 1978.92 1891.04C1985.19 1875.72 1996.58 1864.47 2011.03 1859.34C2043.4 1847.87 2128.34 1847.74 2131.88 1847.74C2135.33 1847.74 2138.64 1849.11 2141.08 1851.55C2143.52 1853.99 2144.89 1857.3 2144.89 1860.76C2144.89 1864.21 2143.52 1867.52 2141.08 1869.96C2138.64 1872.4 2135.33 1873.77 2131.88 1873.77C2108.6 1873.77 2043.05 1875.63 2019.68 1883.88C2015.84 1885.36 2012.36 1887.64 2009.47 1890.57C2006.59 1893.5 2004.36 1897.02 2002.94 1900.88C1998.95 1910.64 1994.89 1932.37 2012.46 1968.33C2020.48 1984.73 2080.88 1976.79 2132.25 1959.03C2133.87 1958.43 2135.6 1958.17 2137.33 1958.24C2139.06 1958.32 2140.76 1958.74 2142.32 1959.48C2143.89 1960.23 2145.29 1961.27 2146.44 1962.56C2147.6 1963.85 2148.49 1965.36 2149.05 1967C2149.62 1968.63 2149.85 1970.36 2149.74 1972.09C2149.62 1973.82 2149.17 1975.51 2148.39 1977.06C2147.62 1978.61 2146.54 1979.99 2145.23 1981.11C2143.92 1982.24 2142.39 1983.1 2140.75 1983.63C2120.17 1990.5 2099.11 1995.87 2077.76 1999.69C2065.74 2001.88 2053.57 2003.07 2041.35 2003.24Z"></path>
  <path fill="#000" d="M2088.47 1863.88C2085.6 1863.88 2082.81 1862.93 2080.54 1861.18C2078.27 1859.43 2076.63 1856.98 2075.9 1854.21C2073.52 1845.23 2053.38 1765.34 2079.95 1723.25C2083.82 1716.85 2089.01 1711.36 2095.18 1707.14C2101.35 1702.92 2108.36 1700.08 2115.72 1698.8C2137.14 1694.79 2152.24 1695.31 2161.12 1696.46C2166.71 1697.19 2171.92 1699.65 2176.03 1703.51C2180.13 1707.36 2182.93 1712.41 2184.01 1717.93L2200.02 1798.3C2200.64 1801.67 2199.91 1805.14 2197.99 1807.98C2196.07 1810.81 2193.11 1812.77 2189.76 1813.44C2186.4 1814.11 2182.92 1813.42 2180.06 1811.54C2177.2 1809.66 2175.2 1806.73 2174.49 1803.38L2158.48 1723.01C2158.45 1722.83 2158.37 1722.67 2158.25 1722.54C2158.12 1722.41 2157.97 1722.31 2157.79 1722.26C2150.77 1721.37 2138.61 1721 2120.61 1724.38C2116.77 1725.01 2113.11 1726.47 2109.89 1728.67C2106.68 1730.88 2103.99 1733.76 2102.02 1737.12C2084.6 1764.69 2095.46 1826.17 2101.11 1847.54C2101.62 1849.46 2101.68 1851.48 2101.28 1853.43C2100.89 1855.39 2100.05 1857.23 2098.84 1858.8C2097.62 1860.38 2096.06 1861.66 2094.27 1862.54C2092.48 1863.42 2090.51 1863.88 2088.52 1863.88H2088.47Z"></path>
  <path fill="#000" d="M2121.06 1709.81C2117.75 1709.82 2114.56 1708.56 2112.14 1706.3 2109.72 1704.04 2108.26 1700.94 2108.04 1697.64 2106.67 1676.18 2099.79 1665.55 2082.01 1642.73 2080.13 1640.01 2079.35 1636.66 2079.85 1633.38 2080.35 1630.1 2082.08 1627.13 2084.69 1625.09 2087.3 1623.04 2090.6 1622.07 2093.9 1622.37 2097.2 1622.67 2100.27 1624.22 2102.47 1626.71 2120.76 1650.11 2132.08 1665.97 2134.07 1695.94 2134.3 1699.39 2133.14 1702.78 2130.87 1705.37 2128.59 1707.97 2125.38 1709.55 2121.93 1709.78L2121.06 1709.81ZM1371.06 2306.54C1363.34 2306.59 1355.67 2305.33 1348.36 2302.82 1332.66 2297.29 1319.68 2285.93 1312.13 2271.09 1311.6 2269.91 1311.25 2268.65 1311.09 2267.37L1258.14 1868.89C1232.11 1854.2 1120.56 1791.23 1009.68 1731.98 910.36 1678.84 748.202 1641.68 686.18 1628.72L799.478 1866.88C800.82 1869.98 800.906 1873.47 799.72 1876.63 798.533 1879.79 796.166 1882.37 793.118 1883.81 790.069 1885.26 786.578 1885.47 783.381 1884.39 780.183 1883.31 777.529 1881.03 775.978 1878.04L651.45 1616.45C650.421 1614.28 650.009 1611.88 650.262 1609.49 650.514 1607.11 651.42 1604.84 652.879 1602.94 654.339 1601.04 656.296 1599.57 658.534 1598.71 660.772 1597.85 663.204 1597.63 665.562 1598.06 674.857 1599.77 894.241 1640.69 1021.97 1709.02 1148.06 1776.47 1275.34 1848.72 1276.67 1849.44 1278.42 1850.43 1279.91 1851.82 1281.03 1853.48 1282.16 1855.14 1282.88 1857.05 1283.14 1859.04L1336.63 2261.72C1341.34 2269.56 1348.67 2275.48 1357.32 2278.45 1371.55 2283.19 1389.45 2280.05 1410.53 2269.15 1412.05 2268.35 1413.71 2267.85 1415.42 2267.69 1417.13 2267.53 1418.86 2267.71 1420.5 2268.22 1422.14 2268.74 1423.66 2269.57 1424.98 2270.67 1426.3 2271.77 1427.38 2273.12 1428.18 2274.65 1428.97 2276.17 1429.45 2277.83 1429.6 2279.55 1429.74 2281.26 1429.55 2282.98 1429.03 2284.62 1428.5 2286.25 1427.66 2287.77 1426.55 2289.08 1425.44 2290.39 1424.07 2291.46 1422.54 2292.24 1403.99 2301.71 1386.77 2306.54 1371.06 2306.54Z"></path>
  <path fill="#000" d="M983.239 2323.18C980.874 2323.18 978.552 2322.54 976.525 2321.32 974.497 2320.1 972.84 2318.35 971.731 2316.26L945.052 2265.88C943.519 2262.84 943.24 2259.32 944.275 2256.07 945.309 2252.83 947.574 2250.12 950.584 2248.52 953.594 2246.93 957.109 2246.58 960.374 2247.55 963.64 2248.52 966.395 2250.73 968.05 2253.7L989.003 2293.25C1024.33 2278.11 1136.53 2236.8 1289.28 2246.77 1292.73 2246.99 1295.95 2248.58 1298.23 2251.18 1300.52 2253.78 1301.67 2257.18 1301.45 2260.63 1301.22 2264.08 1299.64 2267.3 1297.04 2269.58 1294.44 2271.86 1291.04 2273.02 1287.59 2272.8 1112.82 2261.34 990.249 2321.13 989.04 2321.84 987.234 2322.72 985.25 2323.18 983.239 2323.18ZM1409.9 2148.36C1406.74 2148.36 1403.68 2147.2 1401.3 2145.1 1398.93 2143.01 1397.4 2140.12 1397 2136.98L1366.38 1896.38C1342.69 1909.1 1320.96 1912.33 1301.55 1905.98 1268.08 1894.99 1255.85 1859.5 1255.35 1857.95 1255.06 1857.13 1254.87 1856.27 1254.77 1855.41 1254.77 1855.17 1251.05 1827.52 1229.49 1785.71 1205.89 1739.86 1170.92 1695.37 1125.52 1653.44 1027.36 1562.79 869.495 1512.04 818.888 1497.53V1643.87C818.888 1647.32 817.517 1650.63 815.076 1653.07 812.636 1655.51 809.325 1656.88 805.874 1656.88 802.422 1656.88 799.112 1655.51 796.671 1653.07 794.231 1650.63 792.86 1647.32 792.86 1643.87V1480.43C792.858 1478.45 793.307 1476.5 794.171 1474.73 795.035 1472.95 796.293 1471.39 797.848 1470.18 799.403 1468.96 801.215 1468.11 803.147 1467.7 805.079 1467.28 807.079 1467.31 808.997 1467.79 817.587 1469.92 1020.65 1521.11 1143.17 1634.26 1190.82 1678.25 1227.65 1725.19 1252.63 1773.7 1273.68 1814.6 1279.24 1843.36 1280.37 1850.48 1282.14 1854.94 1291.06 1875.13 1309.8 1881.19 1325.72 1886.33 1345.71 1880.49 1369.3 1863.87 1371.13 1862.56 1373.27 1861.76 1375.51 1861.53 1377.75 1861.3 1380.01 1861.65 1382.07 1862.56 1384.13 1863.46 1385.92 1864.89 1387.27 1866.69 1388.61 1868.49 1389.47 1870.61 1389.75 1872.85L1422.94 2133.58C1423.15 2135.27 1423.03 2136.99 1422.58 2138.64 1422.13 2140.29 1421.36 2141.84 1420.32 2143.19 1419.27 2144.54 1417.97 2145.67 1416.49 2146.52 1415 2147.37 1413.36 2147.92 1411.67 2148.13 1411.09 2148.25 1410.5 2148.33 1409.9 2148.36ZM1390.66 1860.18C1388.04 1860.18 1385.48 1859.39 1383.31 1857.91 1381.15 1856.43 1379.48 1854.33 1378.53 1851.89 1377.58 1849.44 1377.39 1846.77 1377.99 1844.21 1378.58 1841.66 1379.93 1839.35 1381.87 1837.57 1436.99 1788.47 1494.8 1742.48 1555.05 1699.81 1690.04 1604.12 1808.72 1545.5 1907.73 1525.44 2083.15 1489.96 2096.59 1500.54 2102.32 1504.99 2103.93 1506.22 2105.26 1507.8 2106.2 1509.6 2107.14 1511.4 2107.68 1513.39 2107.78 1515.42 2107.8 1515.71 2107.8 1516 2107.78 1516.29L2101.48 1716.54C2101.37 1719.99 2099.89 1723.26 2097.37 1725.62 2094.85 1727.98 2091.5 1729.25 2088.05 1729.14 2084.6 1729.03 2081.33 1727.55 2078.97 1725.03 2076.61 1722.51 2075.34 1719.16 2075.45 1715.71L2081.42 1526.07C2067.18 1525.6 2026.07 1528.13 1912.88 1551.02 1684.73 1597.15 1402.28 1854.12 1399.45 1856.76 1397.05 1858.96 1393.92 1860.18 1390.66 1860.18ZM1488.43 2271.3C1485.62 2271.31 1482.88 2270.4 1480.62 2268.72 1478.36 2267.04 1476.71 2264.67 1475.92 2261.97 1475.12 2259.27 1475.22 2256.38 1476.21 2253.74 1477.19 2251.11 1479 2248.86 1481.37 2247.34 1485.61 2244.62 1587.21 2180.76 1784.73 2191.97 1939.17 2200.75 2044.63 2228.39 2084.34 2240.31V2182.67C2084.34 2179.22 2085.71 2175.91 2088.15 2173.47 2090.59 2171.03 2093.9 2169.66 2097.35 2169.66 2100.8 2169.66 2104.11 2171.03 2106.56 2173.47 2109 2175.91 2110.37 2179.22 2110.37 2182.67V2258.21C2110.37 2260.3 2109.87 2262.36 2108.9 2264.21 2107.94 2266.06 2106.55 2267.65 2104.84 2268.85 2103.14 2270.06 2101.17 2270.83 2099.1 2271.11 2097.03 2271.39 2094.93 2271.17 2092.97 2270.46 2091.79 2270.06 1974.37 2228.74 1783.26 2217.89 1594.11 2207.14 1496.43 2268.53 1495.48 2269.14 1493.39 2270.53 1490.94 2271.28 1488.43 2271.3Z"></path>
  <path fill="#000" d="M1519.56 1938.5C1516.84 1938.5 1514.19 1937.66 1511.98 1936.08 1509.76 1934.5 1508.1 1932.27 1507.22 1929.7 1506.34 1927.12 1506.29 1924.34 1507.07 1921.74 1507.85 1919.14 1509.43 1916.84 1511.58 1915.18 1513.29 1913.86 1554.06 1882.5 1620.03 1848.25 1680.95 1816.65 1775.62 1776.94 1880.54 1766.71 1883.99 1766.37 1887.44 1767.43 1890.12 1769.63 1892.8 1771.84 1894.5 1775.02 1894.83 1778.48 1895.17 1781.93 1894.12 1785.38 1891.91 1788.06 1889.7 1790.75 1886.52 1792.44 1883.06 1792.78 1690.17 1811.57 1529.13 1934.59 1527.51 1935.82 1525.23 1937.58 1522.43 1938.52 1519.56 1938.5ZM1548.45 2037.98C1545.43 2037.99 1542.51 2036.95 1540.18 2035.04 1537.84 2033.13 1536.24 2030.47 1535.65 2027.51 1535.06 2024.56 1535.52 2021.49 1536.94 2018.83 1538.36 2016.17 1540.66 2014.09 1543.45 2012.94 1550.88 2009.87 1726.43 1937.62 1838.76 1949.72 1840.46 1949.91 1842.1 1950.43 1843.6 1951.25 1845.1 1952.07 1846.43 1953.18 1847.5 1954.51 1848.57 1955.84 1849.37 1957.37 1849.85 1959.01 1850.33 1960.65 1850.48 1962.37 1850.3 1964.07 1850.11 1965.77 1849.59 1967.41 1848.77 1968.91 1847.95 1970.41 1846.84 1971.74 1845.51 1972.81 1844.18 1973.88 1842.65 1974.68 1841.01 1975.16 1839.37 1975.64 1837.65 1975.79 1835.95 1975.6 1730.26 1964.17 1555.22 2036.18 1553.36 2036.96 1551.8 2037.62 1550.14 2037.97 1548.45 2037.98ZM512.83 2297.24C510.126 2297.25 507.488 2296.41 505.283 2294.84 503.079 2293.28 501.416 2291.06 500.527 2288.51 499.637 2285.96 499.565 2283.19 500.321 2280.59 501.076 2278 502.622 2275.7 504.743 2274.02 508.461 2271.03 599.022 2200.68 733.422 2207.52 736.873 2207.69 740.114 2209.23 742.431 2211.8 744.748 2214.36 745.951 2217.74 745.776 2221.19 745.601 2224.65 744.062 2227.89 741.497 2230.2 738.933 2232.52 735.553 2233.72 732.102 2233.55 607.332 2227.17 521.68 2293.78 520.825 2294.45 518.545 2296.25 515.731 2297.23 512.83 2297.24ZM581.713 2413.55C579.146 2413.55 576.635 2412.8 574.496 2411.38 572.358 2409.96 570.686 2407.94 569.693 2405.57 568.699 2403.21 568.428 2400.6 568.912 2398.08 569.397 2395.56 570.616 2393.24 572.417 2391.41 576.135 2387.69 664.688 2298.34 753.538 2271.75 756.847 2270.76 760.411 2271.13 763.448 2272.77 766.485 2274.42 768.745 2277.2 769.731 2280.51 770.718 2283.81 770.349 2287.38 768.707 2290.42 767.065 2293.45 764.283 2295.71 760.975 2296.7 678.594 2321.33 591.789 2408.79 590.953 2409.66 589.746 2410.89 588.308 2411.86 586.722 2412.53 585.136 2413.2 583.433 2413.54 581.713 2413.55ZM2426.3 2020.71C2423.56 2020.71 2420.89 2019.85 2418.67 2018.25 2416.45 2016.65 2414.79 2014.39 2413.93 2011.79 2413.07 2009.19 2413.05 2006.38 2413.88 2003.77 2414.7 2001.16 2416.33 1998.88 2418.53 1997.25 2492.06 1942.62 2614.04 1937.96 2619.19 1937.75 2622.64 1937.64 2626 1938.9 2628.52 1941.26 2631.04 1943.62 2632.52 1946.88 2632.64 1950.33 2632.75 1953.78 2631.49 1957.14 2629.14 1959.66 2626.78 1962.18 2623.51 1963.67 2620.06 1963.78 2618.59 1963.78 2500.91 1968.45 2434.03 2018.13 2431.8 2019.79 2429.09 2020.7 2426.3 2020.71ZM2619.63 2103.7C2618.37 2103.69 2617.12 2103.5 2615.91 2103.14 2614.67 2102.75 2490.25 2065.72 2417.54 2092.71 2414.32 2093.85 2410.78 2093.68 2407.69 2092.23 2404.6 2090.79 2402.19 2088.18 2401 2084.98 2399.81 2081.78 2399.93 2078.24 2401.32 2075.12 2402.72 2072.01 2405.29 2069.56 2408.47 2068.32 2489.43 2038.24 2618.02 2076.59 2623.46 2078.23 2626.45 2079.13 2629.01 2081.08 2630.68 2083.71 2632.35 2086.34 2633.02 2089.48 2632.57 2092.57 2632.12 2095.65 2630.58 2098.47 2628.23 2100.51 2625.87 2102.56 2622.86 2103.69 2619.74 2103.7H2619.63Z"></path>
  <path fill="#AB66FE" d="M2552.96 1695.63C2523.87 1695.63 2499.29 1656.16 2499.29 1609.44 2499.29 1605.98 2497.92 1602.67 2495.48 1600.23 2493.04 1597.79 2489.73 1596.42 2486.27 1596.42 2482.82 1596.42 2479.51 1597.79 2477.07 1600.23 2474.63 1602.67 2473.26 1605.98 2473.26 1609.44 2473.26 1656.16 2448.7 1695.63 2419.62 1695.63 2416.17 1695.63 2412.86 1697 2410.42 1699.44 2407.98 1701.88 2406.61 1705.19 2406.61 1708.64 2406.61 1712.09 2407.98 1715.4 2410.42 1717.84 2412.86 1720.29 2416.17 1721.66 2419.62 1721.66 2448.7 1721.66 2473.26 1761.13 2473.26 1807.85 2473.26 1811.3 2474.63 1814.61 2477.07 1817.05 2479.51 1819.49 2482.82 1820.86 2486.27 1820.86 2489.73 1820.86 2493.04 1819.49 2495.48 1817.05 2497.92 1814.61 2499.29 1811.3 2499.29 1807.85 2499.29 1761.13 2523.87 1721.66 2552.96 1721.66 2556.41 1721.66 2559.72 1720.29 2562.17 1717.84 2564.61 1715.4 2565.98 1712.09 2565.98 1708.64 2565.98 1705.19 2564.61 1701.88 2562.17 1699.44 2559.72 1697 2556.41 1695.63 2552.96 1695.63ZM872.544 1126.61C843.448 1126.61 818.869 1087.14 818.869 1040.42 818.869 1036.97 817.498 1033.65 815.057 1031.21 812.617 1028.77 809.307 1027.4 805.855 1027.4 802.403 1027.4 799.093 1028.77 796.653 1031.21 794.212 1033.65 792.841 1036.97 792.841 1040.42 792.841 1087.14 768.281 1126.61 739.203 1126.61 735.752 1126.61 732.442 1127.98 730.001 1130.42 727.56 1132.86 726.189 1136.17 726.189 1139.62 726.189 1143.07 727.56 1146.38 730.001 1148.82 732.442 1151.27 735.752 1152.64 739.203 1152.64 768.281 1152.64 792.841 1192.11 792.841 1238.83 792.841 1242.28 794.212 1245.59 796.653 1248.03 799.093 1250.47 802.403 1251.84 805.855 1251.84 809.307 1251.84 812.617 1250.47 815.057 1248.03 817.498 1245.59 818.869 1242.28 818.869 1238.83 818.869 1192.11 843.448 1152.64 872.544 1152.64 875.995 1152.64 879.306 1151.27 881.746 1148.82 884.187 1146.38 885.558 1143.07 885.558 1139.62 885.558 1136.17 884.187 1132.86 881.746 1130.42 879.306 1127.98 875.995 1126.61 872.544 1126.61ZM469.939 1633.62C453.206 1633.62 438.481 1608.78 438.481 1580.49 438.481 1577.04 437.11 1573.73 434.67 1571.28 432.229 1568.84 428.919 1567.47 425.467 1567.47 422.016 1567.47 418.705 1568.84 416.265 1571.28 413.824 1573.73 412.453 1577.04 412.453 1580.49 412.453 1609.29 398.063 1633.62 381.014 1633.62 377.563 1633.62 374.252 1634.99 371.812 1637.43 369.371 1639.87 368 1643.18 368 1646.64 368 1650.09 369.371 1653.4 371.812 1655.84 374.252 1658.28 377.563 1659.65 381.014 1659.65 397.747 1659.65 412.453 1684.49 412.453 1712.79 412.453 1716.24 413.824 1719.55 416.265 1721.99 418.705 1724.43 422.016 1725.8 425.467 1725.8 428.919 1725.8 432.229 1724.43 434.67 1721.99 437.11 1719.55 438.481 1716.24 438.481 1712.79 438.481 1684.49 453.169 1659.65 469.939 1659.65 473.39 1659.65 476.701 1658.28 479.141 1655.84 481.582 1653.4 482.953 1650.09 482.953 1646.64 482.953 1643.18 481.582 1639.87 479.141 1637.43 476.701 1634.99 473.39 1633.62 469.939 1633.62Z"></path>
</svg>
