<svg xmlns="http://www.w3.org/2000/svg" width="3000" height="3000" fill="none" viewBox="0 0 3000 3000" id="online-education-video">
  <path fill="#F15BB5" d="M2108.07 1948.79 2086.61 1925.76V2087.38C2086.6 2095.12 2083.52 2102.54 2078.05 2108.01 2072.58 2113.48 2065.15 2116.55 2057.42 2116.56H822.511C814.773 2116.55 807.352 2113.48 801.878 2108.01 796.405 2102.54 793.325 2095.12 793.316 2087.38V1739.71L788.001 1736C766.618 1721.32 747.91 1709.43 730.779 1699.86L712.336 1689.5 711.858 2129V2149.21C711.886 2161.86 716.915 2173.99 725.849 2182.95 734.782 2191.91 746.896 2196.98 759.549 2197.04L2119.01 2201.03H2119.17C2131.86 2201.03 2144.03 2195.99 2153 2187.02 2161.97 2178.05 2167.01 2165.88 2167.01 2153.2V2008.1L2163.14 2004.42C2145.32 1987.59 2126.83 1968.86 2108.07 1948.79ZM2119.1 1010.2H1878.26L1874.53 1015.39C1869.11 1023.08 1862.66 1029.99 1855.37 1035.93L1848.39 1041.24 1850.9 1049.57C1853.98 1060.52 1855.54 1071.85 1855.54 1083.23L1855.28 1095.9H2057.42C2061.26 1095.89 2065.07 1096.64 2068.62 1098.11 2072.17 1099.57 2075.4 1101.73 2078.12 1104.45 2080.84 1107.16 2082.99 1110.39 2084.46 1113.94 2085.93 1117.49 2086.69 1121.3 2086.68 1125.14V1685.18L2090.23 1688.72C2097.31 1695.97 2103.69 1702.4 2109.91 1708.42 2121.12 1719.26 2133.36 1730.74 2146.28 1742.56L2167.04 1761.53V1058.04C2167.04 1051.75 2165.8 1045.52 2163.39 1039.71 2160.98 1033.9 2157.45 1028.62 2152.99 1024.18 2148.54 1019.73 2143.26 1016.21 2137.44 1013.81 2131.62 1011.42 2125.39 1010.19 2119.1 1010.2ZM771.029 1400.31 793.316 1429.75V1125.14C793.325 1117.4 796.405 1109.99 801.878 1104.52 807.352 1099.04 814.773 1095.97 822.512 1095.97H1428.59V1083.56C1428.66 1063.99 1430.9 1044.49 1435.29 1025.42L1438.72 1010.29H760.772C748.086 1010.29 735.919 1015.33 726.949 1024.3 717.978 1033.27 712.939 1045.44 712.939 1058.12L712.655 1327.03 715.578 1330.58C736.855 1355.77 757.476 1382.41 771.029 1400.31Z"></path>
  <path fill="#000" d="M1913.07 2208.49H957.223C953.934 2208.49 950.78 2207.18 948.454 2204.86C946.128 2202.53 944.822 2199.38 944.822 2196.09C944.822 2192.8 946.128 2189.65 948.454 2187.32C950.78 2184.99 953.934 2183.69 957.223 2183.69H1913.07C1916.36 2183.69 1919.51 2184.99 1921.84 2187.32C1924.16 2189.65 1925.47 2192.8 1925.47 2196.09C1925.47 2199.38 1924.16 2202.53 1921.84 2204.86C1919.51 2207.18 1916.36 2208.49 1913.07 2208.49Z"></path>
  <path fill="#000" d="M1667.38 2342.26H1165.07C1146.38 2342.25 1128.47 2334.82 1115.26 2321.61C1102.04 2308.4 1094.61 2290.49 1094.59 2271.81V2196.09C1094.59 2192.8 1095.9 2189.65 1098.22 2187.32C1100.55 2184.99 1103.7 2183.69 1106.99 2183.69H1725.44C1728.73 2183.69 1731.88 2184.99 1734.21 2187.32C1736.53 2189.65 1737.84 2192.8 1737.84 2196.09V2271.81C1737.82 2290.49 1730.38 2308.39 1717.18 2321.6C1703.97 2334.81 1686.06 2342.24 1667.38 2342.26ZM1119.39 2208.49V2271.81C1119.41 2283.91 1124.22 2295.51 1132.78 2304.07C1141.34 2312.63 1152.94 2317.45 1165.05 2317.46H1667.38C1679.49 2317.45 1691.09 2312.63 1699.65 2304.07C1708.21 2295.51 1713.02 2283.91 1713.04 2271.81V2208.49H1119.39Z"></path>
  <path fill="#000" d="M1255.61 2301.21C1247.55 2301.21 1239.68 2298.82 1232.97 2294.35 1226.27 2289.87 1221.05 2283.51 1217.97 2276.06 1214.88 2268.61 1214.08 2260.42 1215.65 2252.52 1217.22 2244.61 1221.1 2237.35 1226.8 2231.66 1232.5 2225.96 1239.76 2222.08 1247.66 2220.5 1255.57 2218.93 1263.76 2219.74 1271.21 2222.82 1278.65 2225.91 1285.01 2231.13 1289.49 2237.83 1293.97 2244.53 1296.36 2252.41 1296.36 2260.47 1296.33 2271.27 1292.03 2281.61 1284.39 2289.25 1276.76 2296.88 1266.41 2301.19 1255.61 2301.21ZM1255.61 2244.42C1252.46 2244.42 1249.38 2245.35 1246.75 2247.1 1244.13 2248.86 1242.09 2251.35 1240.88 2254.26 1239.67 2257.17 1239.36 2260.38 1239.97 2263.47 1240.59 2266.56 1242.11 2269.41 1244.34 2271.64 1246.57 2273.87 1249.41 2275.38 1252.5 2276 1255.59 2276.61 1258.8 2276.3 1261.71 2275.09 1264.63 2273.88 1267.12 2271.84 1268.87 2269.22 1270.62 2266.6 1271.56 2263.51 1271.56 2260.36 1271.56 2258.27 1271.14 2256.19 1270.34 2254.26 1269.54 2252.32 1268.37 2250.57 1266.89 2249.09 1265.41 2247.61 1263.65 2246.43 1261.71 2245.63 1259.78 2244.83 1257.71 2244.42 1255.61 2244.42ZM1416.22 2301.21C1408.17 2301.21 1400.29 2298.82 1393.59 2294.35 1386.89 2289.87 1381.66 2283.51 1378.58 2276.06 1375.5 2268.61 1374.69 2260.42 1376.26 2252.52 1377.83 2244.61 1381.71 2237.35 1387.41 2231.66 1393.11 2225.96 1400.37 2222.08 1408.27 2220.5 1416.18 2218.93 1424.37 2219.74 1431.82 2222.82 1439.26 2225.91 1445.63 2231.13 1450.1 2237.83 1454.58 2244.53 1456.97 2252.41 1456.97 2260.47 1456.95 2271.27 1452.65 2281.62 1445.01 2289.25 1437.37 2296.89 1427.02 2301.19 1416.22 2301.21ZM1416.22 2244.42C1413.07 2244.42 1409.99 2245.35 1407.37 2247.1 1404.74 2248.86 1402.7 2251.35 1401.49 2254.26 1400.29 2257.17 1399.97 2260.38 1400.59 2263.47 1401.2 2266.56 1402.72 2269.41 1404.95 2271.64 1407.18 2273.87 1410.02 2275.38 1413.11 2276 1416.21 2276.61 1419.41 2276.3 1422.33 2275.09 1425.24 2273.88 1427.73 2271.84 1429.48 2269.22 1431.23 2266.6 1432.17 2263.51 1432.17 2260.36 1432.17 2256.13 1430.49 2252.08 1427.5 2249.09 1424.51 2246.1 1420.45 2244.42 1416.22 2244.42ZM1576.82 2301.21C1568.76 2301.21 1560.88 2298.82 1554.18 2294.35 1547.48 2289.87 1542.26 2283.51 1539.17 2276.06 1536.09 2268.61 1535.28 2260.42 1536.86 2252.52 1538.43 2244.61 1542.31 2237.35 1548.01 2231.66 1553.71 2225.96 1560.97 2222.08 1568.87 2220.5 1576.77 2218.93 1584.97 2219.74 1592.41 2222.82 1599.86 2225.91 1606.22 2231.13 1610.7 2237.83 1615.18 2244.53 1617.57 2252.41 1617.57 2260.47 1617.54 2271.27 1613.24 2281.62 1605.61 2289.25 1597.97 2296.89 1587.62 2301.19 1576.82 2301.21ZM1576.82 2244.42C1573.67 2244.42 1570.58 2245.35 1567.96 2247.1 1565.34 2248.86 1563.3 2251.35 1562.09 2254.26 1560.88 2257.17 1560.57 2260.38 1561.18 2263.47 1561.8 2266.56 1563.32 2269.41 1565.55 2271.64 1567.77 2273.87 1570.62 2275.38 1573.71 2276 1576.8 2276.61 1580.01 2276.3 1582.92 2275.09 1585.83 2273.88 1588.32 2271.84 1590.08 2269.22 1591.83 2266.6 1592.76 2263.51 1592.76 2260.36 1592.76 2256.13 1591.08 2252.08 1588.09 2249.09 1585.1 2246.1 1581.05 2244.42 1576.82 2244.42Z"></path>
  <path fill="#F15BB5" d="M2238.81 1596.6C2236.18 1596.61 2233.61 1595.78 2231.49 1594.23 2229.36 1592.68 2227.78 1590.5 2226.97 1587.99 2226.17 1585.49 2226.18 1582.79 2227.01 1580.3 2227.84 1577.8 2229.44 1575.63 2231.58 1574.1 2232.22 1573.64 2295.73 1527.62 2331.22 1449.45 2331.89 1447.97 2332.85 1446.63 2334.04 1445.52 2335.23 1444.41 2336.63 1443.54 2338.15 1442.97 2339.68 1442.4 2341.3 1442.13 2342.93 1442.18 2344.55 1442.24 2346.16 1442.61 2347.64 1443.29 2349.12 1443.96 2350.46 1444.92 2351.57 1446.11 2352.68 1447.3 2353.55 1448.7 2354.12 1450.22 2354.69 1451.75 2354.96 1453.37 2354.91 1455 2354.85 1456.63 2354.48 1458.23 2353.8 1459.71 2315.45 1544.16 2248.8 1592.3 2245.98 1594.35 2243.89 1595.83 2241.38 1596.62 2238.81 1596.6ZM2246.83 1676.96C2244.03 1676.96 2241.31 1676.02 2239.12 1674.28 2236.92 1672.54 2235.38 1670.1 2234.74 1667.38 2234.11 1664.65 2234.41 1661.78 2235.61 1659.25 2236.81 1656.72 2238.83 1654.67 2241.34 1653.43 2309.21 1619.93 2349.21 1572.89 2370.67 1547.63 2380.68 1535.87 2386.72 1528.76 2392.83 1525.52 2395.72 1524.09 2399.05 1523.85 2402.12 1524.83 2405.19 1525.82 2407.76 1527.96 2409.27 1530.81 2410.79 1533.65 2411.14 1536.98 2410.24 1540.07 2409.35 1543.17 2407.29 1545.8 2404.49 1547.4 2402.2 1548.84 2395.49 1556.74 2389.57 1563.7 2366.91 1590.27 2324.75 1639.88 2252.29 1675.66 2250.59 1676.51 2248.73 1676.95 2246.83 1676.96Z"></path>
  <path fill="#000" d="M1513.91 1241.02C1490.88 1241.02 1472.12 1236.28 1456.9 1226.85C1420.44 1204.14 1410.59 1158.33 1405.38 1112.21C1398.3 1049.04 1415.52 979.343 1455.32 910.463C1471.89 881.753 1491.31 854.794 1513.31 829.998V829.838C1515.34 818.943 1527.66 817.65 1535.03 816.87C1545.34 815.772 1562.08 815.258 1584.74 815.347C1665.52 815.612 1713.87 925.398 1715.84 930.057C1716.48 931.552 1716.83 933.159 1716.85 934.788C1716.88 936.416 1716.58 938.034 1715.98 939.548C1715.38 941.063 1714.49 942.444 1713.36 943.613C1712.23 944.783 1710.87 945.718 1709.38 946.365C1707.88 947.011 1706.28 947.357 1704.65 947.383C1703.02 947.408 1701.4 947.113 1699.89 946.513C1698.37 945.914 1696.99 945.022 1695.82 943.888C1694.65 942.755 1693.72 941.402 1693.07 939.907C1692.65 938.915 1649.15 840.362 1584.6 840.149C1555.86 840.043 1542.4 840.928 1536.23 841.655C1536.08 841.834 1535.92 842.006 1535.75 842.169C1534.55 843.426 1414.12 969.156 1429.95 1109.43C1436.12 1164.03 1447.67 1191.95 1469.94 1205.79C1497.97 1223.24 1547.27 1218.91 1620.67 1192.57C1623.73 1191.57 1627.07 1191.81 1629.96 1193.23C1632.86 1194.65 1635.08 1197.14 1636.17 1200.17C1637.26 1203.21 1637.13 1206.55 1635.8 1209.48C1634.47 1212.42 1632.05 1214.72 1629.05 1215.9C1582.31 1232.68 1544.4 1241.02 1513.91 1241.02Z"></path>
  <path fill="#000" d="M1847.71 1135.99C1844.89 1135.99 1842.16 1135.03 1839.95 1133.28C1837.75 1131.52 1836.21 1129.06 1835.59 1126.31C1834.97 1123.56 1835.31 1120.68 1836.55 1118.14C1837.79 1115.61 1839.85 1113.57 1842.4 1112.37C1862.06 1103.05 1854.96 1062.91 1850.92 1049.59C1850.17 1047.14 1850.2 1044.52 1851 1042.09C1851.8 1039.66 1853.33 1037.54 1855.38 1036.02C1857.46 1034.46 1906.58 996.562 1885.8 940.244C1880.31 925.362 1871.95 915.725 1860.22 910.764C1836.06 900.524 1805.58 913.758 1805.3 913.882C1802.84 914.979 1800.09 915.246 1797.47 914.643C1794.85 914.039 1792.49 912.599 1790.76 910.538C1789.02 908.477 1788.01 905.908 1787.86 903.22C1787.72 900.531 1788.46 897.869 1789.96 895.635C1790.33 895.086 1826.61 840.273 1814.76 798.197C1810.07 781.668 1798.62 769.267 1779.7 760.587C1754.9 749.142 1735.73 747.282 1722.89 755.095C1704.66 766.167 1702.85 794.583 1702.83 794.867C1702.72 798.156 1701.31 801.266 1698.91 803.514C1697.72 804.627 1696.32 805.494 1694.79 806.067C1693.27 806.64 1691.64 806.906 1690.01 806.852C1688.39 806.797 1686.78 806.422 1685.3 805.748C1683.82 805.075 1682.48 804.115 1681.37 802.925C1679.12 800.521 1677.92 797.323 1678.03 794.034C1678.51 771.393 1677.46 706.907 1667.1 680.83C1662.71 669.757 1648.18 655.85 1625.68 649.756C1608.3 645.061 1573.13 641.89 1532.79 673.46C1471.91 721.133 1536.76 825.817 1537.42 826.879C1539.09 829.657 1539.6 832.977 1538.86 836.13C1538.11 839.283 1536.16 842.018 1533.42 843.749C1530.68 845.481 1527.37 846.072 1524.2 845.396C1521.03 844.72 1518.25 842.83 1516.46 840.131C1503.76 819.015 1494.04 796.24 1487.58 772.456C1474.12 720.814 1484.47 679.838 1517.52 653.955C1566.37 615.724 1610.32 619.922 1632.18 625.839C1659.68 633.28 1681.89 650.854 1690.17 671.688C1696.86 688.536 1700.09 715.694 1701.61 740.196C1704.2 737.843 1707.02 735.743 1710.01 733.924C1730.33 721.523 1757.27 722.958 1790.08 738.087C1815.66 749.886 1832 767.85 1838.62 791.519C1847.69 823.885 1835.97 859.548 1825 883.127C1838.36 881.356 1854.5 881.444 1869.72 887.84C1887.91 895.493 1901.16 910.251 1909.06 931.669C1928.89 985.437 1899.5 1030.01 1876.73 1050.52C1881.07 1070.01 1887.84 1118.27 1853.01 1134.78C1851.35 1135.57 1849.55 1135.98 1847.71 1135.99Z"></path>
  <path fill="#000" d="M1778.89 1207.72C1761.17 1207.72 1743.26 1203.64 1728.75 1199.06C1720.03 1196.34 1711.49 1193.06 1703.19 1189.26C1701.71 1188.56 1700.38 1187.58 1699.28 1186.37C1698.18 1185.15 1697.33 1183.73 1696.78 1182.19C1696.23 1180.65 1696 1179.02 1696.08 1177.38C1696.17 1175.75 1696.58 1174.15 1697.29 1172.67C1698 1171.19 1698.99 1169.87 1700.21 1168.78C1701.43 1167.69 1702.86 1166.86 1704.4 1166.32C1705.95 1165.78 1707.59 1165.56 1709.22 1165.66C1710.85 1165.76 1712.45 1166.18 1713.92 1166.9C1721.18 1170.19 1728.62 1173.03 1736.23 1175.4C1753.59 1180.9 1785.83 1188.37 1806.52 1176.88C1816.18 1171.56 1822.47 1162.53 1825.9 1149.36C1832.83 1122.38 1827.39 1103.67 1809.29 1092.19C1799.77 1086.53 1789.11 1083.03 1778.09 1081.94C1774.8 1081.73 1771.73 1080.23 1769.55 1077.76C1767.37 1075.29 1766.25 1072.05 1766.46 1068.76C1766.66 1065.47 1768.17 1062.4 1770.64 1060.22C1773.11 1058.04 1776.34 1056.93 1779.63 1057.13C1794.83 1058.48 1809.52 1063.29 1822.57 1071.18C1838.31 1081.17 1862.79 1105.41 1849.91 1155.47C1844.83 1175.32 1834.27 1189.79 1818.57 1198.51C1806.54 1205.22 1792.76 1207.72 1778.89 1207.72Z"></path>
  <path fill="#000" d="M1731.11 1415.9C1729.47 1415.9 1727.85 1415.57 1726.34 1414.95 1724.83 1414.32 1723.46 1413.4 1722.31 1412.24 1721.15 1411.07 1720.24 1409.7 1719.62 1408.18 1719.01 1406.67 1718.69 1405.04 1718.71 1403.41L1720.09 1187.27C1720.11 1183.99 1721.44 1180.84 1723.78 1178.53 1726.12 1176.22 1729.28 1174.93 1732.57 1174.95 1735.86 1174.97 1739 1176.3 1741.31 1178.64 1743.62 1180.98 1744.91 1184.15 1744.89 1187.43L1743.51 1403.57C1743.49 1406.84 1742.17 1409.98 1739.85 1412.29 1737.53 1414.6 1734.38 1415.9 1731.11 1415.9ZM1526.74 1452.2C1525.72 1452.2 1524.71 1452.07 1523.72 1451.83 1520.53 1451.03 1517.79 1448.99 1516.1 1446.17 1514.41 1443.35 1513.91 1439.98 1514.71 1436.78L1569.08 1219.77C1569.9 1216.61 1571.95 1213.9 1574.76 1212.24 1577.56 1210.57 1580.92 1210.09 1584.09 1210.88 1587.25 1211.67 1589.98 1213.68 1591.67 1216.47 1593.37 1219.27 1593.89 1222.61 1593.14 1225.79L1538.77 1442.81C1538.09 1445.49 1536.55 1447.87 1534.37 1449.57 1532.19 1451.27 1529.5 1452.2 1526.74 1452.2Z"></path>
  <path fill="#000" d="M1111.58 1765.16C1110.24 1765.17 1108.9 1764.96 1107.63 1764.53C1100.19 1762.03 924.786 1702.04 899.735 1584.91C877.378 1480.22 924.927 1367 937.275 1340.23C930.756 1333.75 912.774 1321.35 892.454 1321.86C873.817 1322.34 858.369 1334.26 846.552 1357.29C824.248 1400.89 816.736 1416.55 814.221 1422.17C814.025 1424.15 813.356 1426.05 812.272 1427.71C810.606 1430.64 807.848 1432.79 804.6 1433.69C801.353 1434.59 797.881 1434.17 794.946 1432.51C793.423 1431.67 792.103 1430.51 791.078 1429.1C790.053 1427.7 789.347 1426.09 789.011 1424.38C780.614 1412.94 754.589 1377.84 725.907 1342.89C660.358 1262.85 642.837 1258.93 641.065 1258.74C623.792 1256.97 599.663 1264.37 590.823 1279.48C580.796 1296.63 592.329 1319.54 603.773 1335.75C654.14 1406.98 664.574 1429.82 665 1430.76C665.728 1432.25 666.149 1433.88 666.237 1435.54C666.325 1437.2 666.078 1438.86 665.511 1440.42C664.944 1441.99 664.069 1443.42 662.937 1444.64C661.805 1445.86 660.44 1446.83 658.923 1447.51C657.406 1448.19 655.767 1448.56 654.105 1448.59C652.442 1448.63 650.79 1448.33 649.247 1447.71C647.703 1447.09 646.299 1446.17 645.119 1445C643.939 1443.83 643.006 1442.43 642.376 1440.89C642.288 1440.73 631.747 1418.38 583.524 1350.06C555.179 1309.92 560.192 1282.74 569.351 1266.96C584.038 1241.84 617.787 1231.4 643.546 1234.08C656.354 1235.41 679.473 1247.19 745.075 1327.25C766.6 1353.48 786.619 1379.77 799.02 1396.34C804.867 1384.41 813.388 1367.55 824.407 1346.01C844.302 1307.16 871.248 1297.96 890.346 1297.11C923.917 1295.59 953.025 1317.91 960.448 1329.65C965.231 1337.22 963.442 1343.08 961.936 1345.92C961.316 1347.11 900.267 1468.99 923.935 1579.77C943.192 1669.92 1073.4 1725.04 1107.37 1738.11C1157.43 1675.24 1413.85 1355.18 1465.23 1328.61C1485.55 1318.12 1501.03 1321.52 1510.44 1326.31C1540.55 1341.44 1549.04 1388.4 1549.91 1393.63C1550.44 1396.87 1549.66 1400.2 1547.75 1402.87C1545.83 1405.55 1542.92 1407.35 1539.68 1407.88C1536.43 1408.41 1533.11 1407.63 1530.43 1405.72C1527.76 1403.8 1525.96 1400.9 1525.43 1397.65C1523.65 1387.39 1515.24 1356.37 1499.28 1348.38C1492.99 1345.23 1485.58 1345.95 1476.6 1350.58C1439.4 1369.78 1243.65 1606.22 1121.17 1760.47C1120.02 1761.92 1118.56 1763.09 1116.91 1763.9C1115.25 1764.71 1113.43 1765.15 1111.58 1765.16ZM940.11 1334.3C940.021 1334.44 939.95 1334.6 939.88 1334.74C940.004 1334.4 940.092 1334.4 940.11 1334.3Z"></path>
  <path fill="#000" d="M742.932 1575.66C737.371 1575.59 731.837 1574.89 726.438 1573.55C709.112 1569.42 689.82 1560.1 669.411 1550.25C661.368 1546.37 653.077 1542.37 645.122 1538.83C643.635 1538.16 642.292 1537.21 641.172 1536.03C640.051 1534.85 639.175 1533.45 638.593 1531.93C638.01 1530.41 637.733 1528.79 637.778 1527.16C637.822 1525.53 638.187 1523.93 638.851 1522.44C639.515 1520.95 640.466 1519.61 641.649 1518.49C642.832 1517.37 644.224 1516.49 645.746 1515.91C647.267 1515.33 648.889 1515.05 650.518 1515.1C652.146 1515.14 653.75 1515.5 655.238 1516.17C663.529 1519.87 672.015 1523.96 680.2 1527.91C698.536 1536.77 717.403 1545.91 732.214 1549.42C749.93 1553.62 753.172 1547.95 754.766 1545.22C762.72 1531.62 764.988 1521.84 762.065 1513.51C756.414 1497.32 730.336 1480.42 682.343 1461.83C666.789 1455.81 645.92 1450.58 634.776 1459.94C621.046 1471.45 623.598 1502.79 625.582 1512.86C626.225 1516.08 625.561 1519.43 623.736 1522.17C621.91 1524.9 619.072 1526.8 615.847 1527.45C612.621 1528.09 609.272 1527.42 606.536 1525.6C603.8 1523.77 601.901 1520.94 601.258 1517.71C600.177 1512.27 591.425 1464 618.779 1440.98C635.184 1427.18 659.525 1426.42 691.308 1438.7C747.999 1460.66 777.017 1481.22 785.45 1505.34C792.536 1525.81 783.572 1545.05 776.149 1557.75C771.047 1566.48 761.303 1575.64 742.932 1575.66Z"></path>
  <path fill="#000" d="M1130.02 1994.36C1100.12 1994.36 1071.67 1975.52 1043.77 1957.15C1034.45 1950.97 1024.81 1944.59 1014.92 1938.71C993.842 1926.17 958.499 1898.09 917.486 1865.56C836.773 1801.43 726.243 1713.59 664.149 1697.72C609.974 1683.87 585.756 1656.48 574.985 1635.95C568.009 1623.06 564.396 1608.62 564.479 1593.96C562.796 1584.34 557.393 1543.63 581.292 1523.57C596.651 1510.71 619.346 1510.02 648.719 1521.52C700.945 1541.96 727.749 1561.13 735.633 1583.68C742.382 1602.99 734.003 1621.05 727.111 1632.95C720.999 1643.49 707.943 1654.67 680.341 1648.01C664.397 1644.17 646.575 1635.5 627.796 1626.36C620.426 1622.82 612.826 1619.06 605.545 1615.73C604.056 1615.06 602.714 1614.1 601.595 1612.91C600.476 1611.72 599.603 1610.32 599.025 1608.8C598.446 1607.27 598.175 1605.64 598.225 1604.01C598.275 1602.38 598.647 1600.77 599.318 1599.28C599.989 1597.79 600.947 1596.45 602.137 1595.33C603.327 1594.21 604.725 1593.34 606.253 1592.76C607.78 1592.18 609.406 1591.91 611.039 1591.96C612.671 1592.01 614.278 1592.38 615.767 1593.06C623.385 1596.49 631.162 1600.28 638.691 1603.95C655.451 1612.12 672.794 1620.57 686.188 1623.79C701.565 1627.51 704.346 1622.73 705.675 1620.43C712.761 1608.03 714.87 1599.17 712.265 1591.76C707.11 1577.06 683.389 1561.65 639.719 1544.51C625.759 1539.04 607.068 1534.27 597.201 1542.48C584.8 1552.86 587.244 1581.45 589.087 1590.59C589.315 1591.76 589.375 1592.95 589.264 1594.14C589.104 1596.4 586.111 1652.09 670.279 1673.59C737.599 1690.79 845.914 1776.88 932.97 1846.06C973.203 1877.95 1007.94 1905.62 1027.57 1917.31C1037.99 1923.49 1047.88 1930.05 1057.44 1936.37C1110.18 1971.29 1139.59 1987.29 1179.95 1939.92C1238.6 1871.02 1297.79 1811.33 1298.38 1810.73C1300.7 1808.4 1303.85 1807.08 1307.14 1807.07C1310.43 1807.05 1313.59 1808.35 1315.93 1810.67C1318.26 1812.99 1319.58 1816.14 1319.59 1819.43C1319.6 1822.72 1318.31 1825.88 1315.99 1828.22C1315.4 1828.8 1256.85 1887.87 1198.83 1956C1174.92 1984.12 1152.1 1994.36 1130.02 1994.36Z"></path>
  <path fill="#000" d="M1232.44 2091.35C1230.51 2091.35 1228.6 2090.9 1226.88 2090.04 1225.15 2089.17 1223.65 2087.91 1222.49 2086.36 1221.34 2084.81 1220.56 2083.02 1220.23 2081.11 1219.89 2079.21 1220 2077.26 1220.55 2075.41L1362.67 1600.14C1363.68 1597.08 1365.85 1594.53 1368.71 1593.04 1371.57 1591.55 1374.9 1591.23 1377.99 1592.15 1381.08 1593.08 1383.69 1595.17 1385.26 1597.98 1386.84 1600.79 1387.26 1604.11 1386.43 1607.23L1244.31 2082.48C1243.55 2085.04 1241.98 2087.28 1239.85 2088.88 1237.71 2090.48 1235.11 2091.35 1232.44 2091.35ZM2398.73 1946.51C2396.07 1946.51 2393.47 1945.65 2391.34 1944.04 2389.68 1942.82 2224.81 1819.86 2109.8 1708.51 2063.99 1664.22 2011.9 1602.61 1961.54 1543.06 1922.42 1496.82 1885.48 1453.14 1853.72 1420.11 1812.58 1377.35 1794.05 1367.34 1785.76 1366.47 1782.61 1366 1779.4 1366.26 1776.37 1367.23 1773.34 1368.2 1770.58 1369.86 1768.29 1372.07 1749.94 1389.4 1747.99 1438.29 1748.8 1455.65 1748.96 1458.94 1747.8 1462.16 1745.59 1464.59 1743.37 1467.03 1740.28 1468.48 1736.99 1468.64 1733.7 1468.79 1730.48 1467.64 1728.05 1465.42 1725.61 1463.2 1724.16 1460.11 1724 1456.82 1723.65 1449.28 1721.38 1382.27 1751.25 1354.07 1756.14 1349.41 1762 1345.89 1768.42 1343.77 1774.84 1341.65 1781.64 1340.98 1788.35 1341.81 1825.36 1345.69 1885.47 1414.73 1980.48 1527.05 2030.45 1586.15 2082.13 1647.23 2127.06 1690.69 2240.99 1800.92 2404.51 1922.95 2406.14 1924.17 2408.23 1925.72 2409.78 1927.9 2410.57 1930.39 2411.35 1932.87 2411.33 1935.55 2410.51 1938.02 2409.69 1940.5 2408.11 1942.65 2406 1944.18 2403.88 1945.71 2401.34 1946.53 2398.73 1946.53V1946.51ZM2277.43 2122.27C2275.19 2122.27 2272.99 2121.65 2271.07 2120.49 2129.84 2035.99 1992.26 1854.76 1910.07 1746.53 1898.98 1731.93 1888.16 1717.67 1878.84 1705.78 1903.08 1769.56 1958.92 1890.58 1995.64 1970.09 2036.39 2058.36 2042.62 2072.5 2043.19 2078.15 2043.56 2081.36 2042.66 2084.58 2040.69 2087.13 2038.72 2089.68 2035.83 2091.37 2032.64 2091.83 2029.45 2092.29 2026.2 2091.49 2023.59 2089.6 2020.98 2087.71 2019.21 2084.87 2018.65 2081.7 2016.44 2074.34 1995.39 2028.78 1973.12 1980.56 1902.54 1827.6 1843.98 1698.61 1842.2 1668.26 1841.53 1656.6 1849.13 1652.87 1851.47 1652 1862.63 1647.87 1872 1658 1886.14 1675.13 1897.23 1688.58 1911.61 1707.54 1929.84 1731.52 2005.63 1831.35 2146.7 2017.18 2283.83 2099.22 2286.15 2100.61 2287.95 2102.73 2288.96 2105.25 2289.96 2107.77 2290.11 2110.54 2289.39 2113.16 2288.67 2115.77 2287.11 2118.07 2284.95 2119.71 2282.79 2121.36 2280.16 2122.25 2277.45 2122.25L2277.43 2122.27ZM2018.51 2080.6C2018.51 2080.79 2018.51 2081.06 2018.62 2081.36L2018.51 2080.6Z"></path>
  <path fill="#000" d="M2638.99 2276.75C2560.42 2276.75 2514.43 2184.06 2512.5 2180.07C2511.79 2178.61 2511.37 2177.02 2511.27 2175.39C2511.17 2173.77 2511.4 2172.14 2511.93 2170.6C2512.46 2169.06 2513.29 2167.64 2514.37 2166.42C2515.45 2165.2 2516.76 2164.2 2518.22 2163.49C2519.69 2162.78 2521.28 2162.36 2522.9 2162.26C2524.53 2162.16 2526.16 2162.39 2527.7 2162.92C2529.24 2163.45 2530.66 2164.28 2531.88 2165.36C2533.1 2166.44 2534.09 2167.75 2534.81 2169.21C2535.2 2170.05 2576 2251.95 2639.06 2251.95H2641.31C2675.1 2250.9 2688.81 2226.93 2693.98 2212.72C2703.41 2186.81 2697.95 2158.85 2686.9 2148.95C2657.58 2122.78 2514.93 2042.05 2513.49 2041.23C2511.2 2039.94 2509.38 2037.95 2508.29 2035.55C2507.21 2033.15 2506.91 2030.47 2507.45 2027.89C2508 2025.31 2509.34 2022.97 2511.3 2021.21C2513.26 2019.45 2515.73 2018.36 2518.35 2018.1C2519.09 2018.1 2592.56 2010.27 2628.75 1978.89C2646.65 1963.37 2650.46 1938.14 2651.15 1924.34C2652.14 1904.09 2647.8 1889.53 2645.07 1884.75C2634.26 1885 2599.01 1892.97 2570.2 1899.47C2531.9 1908.12 2488.48 1917.93 2453.17 1922.7C2391.34 1931.04 2381.08 2045.41 2381 2046.57C2380.73 2049.85 2379.16 2052.9 2376.64 2055.04C2374.13 2057.17 2370.87 2058.22 2367.58 2057.95C2364.29 2057.68 2361.24 2056.11 2359.11 2053.6C2356.97 2051.08 2355.92 2047.82 2356.19 2044.53C2356.64 2039 2368.22 1909.13 2449.77 1898.12C2484 1893.5 2526.83 1883.81 2564.64 1875.27C2622.34 1862.23 2643.42 1857.94 2653.43 1860.9C2662.77 1863.65 2669.38 1873.94 2673.24 1891.48C2680.32 1924.56 2674.6 1971.88 2644.89 1997.62C2620.09 2019.07 2582.89 2030.76 2555.64 2036.84C2600.16 2062.6 2680.57 2110.15 2703.3 2130.45C2723.46 2148.47 2729.41 2187.46 2717.14 2221.16C2704.74 2255.35 2677.28 2275.6 2641.93 2276.68L2638.99 2276.75Z"></path>
  <path fill="#000" d="M2535.02 2357.92C2513.76 2357.92 2485.42 2346.92 2451.88 2307.68C2435.96 2288.73 2421.99 2268.21 2410.19 2246.45C2409.39 2245.01 2408.88 2243.42 2408.71 2241.77C2408.53 2240.13 2408.68 2238.46 2409.15 2236.88C2409.63 2235.29 2410.42 2233.82 2411.47 2232.54C2412.52 2231.27 2413.82 2230.21 2415.28 2229.45C2416.75 2228.68 2418.35 2228.21 2420 2228.08C2421.65 2227.94 2423.31 2228.13 2424.88 2228.65C2426.46 2229.16 2427.91 2229.98 2429.16 2231.07C2430.41 2232.15 2431.43 2233.47 2432.16 2234.96C2448.74 2266.58 2501.43 2345.56 2545.65 2331.49C2596.48 2315.3 2589.19 2275.9 2588.17 2271.45C2587.5 2268.29 2588.1 2264.99 2589.84 2262.26C2591.57 2259.53 2594.3 2257.58 2597.45 2256.84C2600.6 2256.09 2603.91 2256.61 2606.69 2258.27C2609.46 2259.94 2611.47 2262.62 2612.3 2265.75C2614.7 2277.73 2614.14 2290.12 2610.67 2301.83C2605.51 2319.43 2591.34 2342.95 2553.13 2355.12C2547.27 2356.98 2541.16 2357.92 2535.02 2357.92Z"></path>
  <path fill="#000" d="M2428.39 2377.48C2421.76 2377.43 2415.15 2376.83 2408.62 2375.71 2374.28 2370.08 2354.95 2334.96 2322.94 2276.66 2314.95 2262.13 2305.9 2245.66 2295.64 2227.89 2243.01 2136.63 2296.74 2064.71 2299.04 2061.69 2301.04 2059.08 2303.99 2057.37 2307.25 2056.93 2310.52 2056.49 2313.82 2057.37 2316.43 2059.36 2319.05 2061.36 2320.76 2064.32 2321.2 2067.58 2321.63 2070.84 2320.76 2074.14 2318.76 2076.75 2316.81 2079.32 2273 2138.99 2317.13 2215.5 2327.51 2233.49 2336.62 2250.09 2344.68 2264.72 2373.02 2316.38 2390.19 2347.56 2412.64 2351.24 2432.39 2354.48 2446.65 2352.13 2455.03 2344.28 2465.66 2334.24 2464.37 2317.35 2464.35 2317.19 2464.06 2313.94 2465.07 2310.7 2467.15 2308.19 2469.23 2305.67 2472.22 2304.08 2475.47 2303.76 2478.72 2303.43 2481.97 2304.4 2484.51 2306.46 2487.04 2308.51 2488.67 2311.48 2489.03 2314.73 2489.15 2315.9 2491.7 2343.87 2472 2362.35 2461.32 2372.45 2446.69 2377.48 2428.39 2377.48ZM1529.18 997.681C1536.75 980.915 1533.68 963.17 1522.33 958.046 1510.97 952.923 1495.64 962.361 1488.07 979.127 1480.5 995.893 1483.57 1013.64 1494.92 1018.76 1506.28 1023.88 1521.61 1014.45 1529.18 997.681ZM1636.65 1037.53C1644.21 1020.77 1641.14 1003.02 1629.79 997.9 1618.44 992.776 1603.1 1002.21 1595.53 1018.98 1587.97 1035.75 1591.04 1053.49 1602.39 1058.61 1613.74 1063.74 1629.08 1054.3 1636.65 1037.53ZM1514.96 1126.74C1507.84 1126.93 1500.8 1125.34 1494.46 1122.11 1478.9 1113.77 1476.9 1097.45 1476.23 1092.1 1476.24 1092.01 1476.24 1091.91 1476.23 1091.82 1475.4 1089.15 1475.51 1086.28 1476.52 1083.68 1477.53 1081.07 1479.39 1078.88 1481.8 1077.47 1484.21 1076.05 1487.02 1075.49 1489.79 1075.88 1492.56 1076.27 1495.11 1077.58 1497.04 1079.6 1499.37 1082.22 1500.73 1085.56 1500.89 1089.06 1501.58 1094.71 1502.66 1098.36 1506.2 1100.25 1510.61 1102.63 1525.35 1105.89 1566.93 1085.14 1569.88 1083.67 1573.28 1083.43 1576.4 1084.48 1579.52 1085.52 1582.1 1087.76 1583.57 1090.7 1585.04 1093.65 1585.28 1097.05 1584.23 1100.17 1583.19 1103.29 1580.95 1105.87 1578.01 1107.34 1552 1120.31 1531.15 1126.74 1514.96 1126.74Z"></path>
  <path fill="#F15BB5" d="M1763.44 1935.82C1850.82 1848.44 1850.82 1706.77 1763.44 1619.39C1676.06 1532.01 1534.39 1532.01 1447.01 1619.39C1359.63 1706.77 1359.63 1848.44 1447.01 1935.82C1534.39 2023.2 1676.06 2023.2 1763.44 1935.82Z"></path>
  <path fill="#fff" d="M1683.08 1771.9L1571.35 1694.97C1569.05 1693.37 1566.28 1692.37 1563.36 1692.09C1560.43 1691.8 1557.47 1692.23 1554.82 1693.34C1552.17 1694.45 1549.93 1696.19 1548.37 1698.35C1546.81 1700.51 1545.99 1703.01 1546 1705.56V1859.44C1545.99 1861.99 1546.81 1864.49 1548.37 1866.65C1549.93 1868.81 1552.17 1870.55 1554.82 1871.66C1557.47 1872.77 1560.43 1873.2 1563.36 1872.91C1566.28 1872.63 1569.05 1871.63 1571.35 1870.03L1683.08 1793.1C1684.93 1791.83 1686.42 1790.22 1687.44 1788.39C1688.47 1786.55 1689 1784.54 1689 1782.5C1689 1780.46 1688.47 1778.45 1687.44 1776.61C1686.42 1774.78 1684.93 1773.17 1683.08 1771.9Z"></path>
  <path fill="#F15BB5" d="M550.714 2070.36H549.828C439.99 2062.58 390.651 1995.58 388.614 1992.73 386.746 1990.06 386.005 1986.76 386.551 1983.54 387.097 1980.33 388.886 1977.46 391.531 1975.56 394.175 1973.65 397.464 1972.87 400.684 1973.37 403.904 1973.87 406.798 1975.62 408.739 1978.24 409.412 1979.14 454.127 2038.72 551.582 2045.56 554.871 2045.67 557.981 2047.08 560.227 2049.49 562.472 2051.89 563.671 2055.09 563.558 2058.38 563.445 2061.67 562.031 2064.78 559.625 2067.03 557.22 2069.27 554.021 2070.47 550.732 2070.36H550.714ZM459.034 2139.03C426.106 2139.29 393.422 2133.35 362.695 2121.51 331.572 2109.39 303.457 2090.65 280.299 2066.59 278.106 2064.22 276.924 2061.09 277.004 2057.86 277.084 2054.63 278.419 2051.56 280.726 2049.3 283.033 2047.04 286.129 2045.78 289.358 2045.76 292.586 2045.75 295.692 2047 298.014 2049.24 358.55 2111.25 444.791 2129.32 547.419 2101.63 548.992 2101.21 550.632 2101.1 552.247 2101.31 553.862 2101.52 555.42 2102.04 556.831 2102.86 558.243 2103.67 559.481 2104.75 560.474 2106.04 561.467 2107.33 562.196 2108.81 562.619 2110.38 563.042 2111.95 563.152 2113.59 562.941 2115.21 562.731 2116.82 562.204 2118.38 561.391 2119.79 560.579 2121.2 559.496 2122.44 558.205 2123.44 556.914 2124.43 555.44 2125.16 553.867 2125.58 522.986 2134.22 491.099 2138.74 459.034 2139.03Z"></path>
</svg>
