<svg xmlns="http://www.w3.org/2000/svg" width="3000" height="3000" fill="none" viewBox="0 0 3000 3000" id="value-of-knowledge">
  <path fill="#15F1AB" d="M1964.31 879.85C1962.65 879.85 1790.63 879.589 1587.3 890.771C1473.36 897.034 1372.8 905.438 1285.62 915.984C1292.51 952.523 1296.06 989.612 1296.24 1026.79C1296.24 1030.44 1294.83 1033.95 1292.29 1036.57C1289.75 1039.19 1286.3 1040.73 1282.65 1040.85L1063.84 1048.01H1063.38C1060.91 1048.01 1058.49 1047.36 1056.35 1046.13C1054.22 1044.9 1052.45 1043.12 1051.21 1040.99L1009.84 969.582C1006.89 970.546 1003.96 971.59 1001.09 972.493C974.79 981.426 948.352 993.431 951.845 1014.65C954.334 1029.87 970.775 1039.66 1008.62 1048.47C1035.78 1054.82 1074.86 1060.66 1125.05 1065.86C1208.66 1074.51 1324.28 1081.62 1468.74 1086.94C1714.39 1096.01 1961.88 1096.81 1964.35 1096.83C1968.08 1096.83 1971.65 1095.35 1974.29 1092.72C1976.92 1090.08 1978.41 1086.51 1978.41 1082.78V893.902C1978.41 892.053 1978.04 890.223 1977.33 888.515C1976.62 886.808 1975.58 885.257 1974.28 883.952C1972.97 882.646 1971.41 881.612 1969.7 880.908C1967.99 880.204 1966.16 879.845 1964.31 879.85Z"></path>
  <path fill="#fff" d="M1902.16 943.188C1902.16 943.188 1560.24 953.466 1292.95 966.333C1294.96 985.725 1296.12 1005.86 1296.24 1026.8C1296.24 1030.45 1294.83 1033.95 1292.29 1036.57C1289.75 1039.2 1286.3 1040.73 1282.65 1040.85L1063.84 1048.02H1063.38C1060.91 1048.01 1058.49 1047.37 1056.36 1046.13C1054.22 1044.9 1052.45 1043.13 1051.21 1040.99L1018.39 984.139C1007.75 985.146 997.178 986.802 986.736 989.097C907.844 1009.93 927.196 1073.95 927.196 1073.95L932.736 1083.67C941.95 1093.26 966.521 1107.88 1032.04 1116.99C1206.01 1141.08 1659.93 1110.45 1908.23 1081.62V1062.19L1902.16 943.188Z"></path>
  <path fill="#000" d="M1922.16 1061.57L1916.14 942.485C1915.95 938.81 1914.34 935.354 1911.64 932.858C1908.93 930.362 1905.36 929.026 1901.68 929.135C1880.06 929.778 1550.86 939.775 1291.28 952.341C1292.45 961.468 1293.4 970.789 1294.15 980.305C1486.36 970.99 1726.53 962.599 1888.83 957.641L1894.07 1062.61V1069.15C1634.91 1098.54 1199.76 1126.2 1033.87 1103.14C971.9 1094.53 950.702 1081.36 943.877 1075.04L940.344 1068.75C939.34 1064.05 936.69 1047.53 945.402 1032.2C953.191 1018.49 968.307 1008.59 990.329 1002.77C996.853 1001.04 1009.08 999.275 1026.04 997.468L1010.6 970.99C1001.31 971.948 992.088 973.469 982.981 975.547C953.151 983.416 932.133 997.93 920.53 1018.71C904.471 1047.29 913.183 1076.78 913.564 1078.03C913.866 1079.04 914.284 1080.02 914.809 1080.94L920.35 1090.63C920.897 1091.64 921.571 1092.57 922.357 1093.4C938.918 1110.69 975.092 1123.29 1029.86 1130.92C1073.9 1136.94 1136.41 1139.65 1209.46 1139.65C1419.88 1139.65 1717.34 1117.91 1909.61 1095.59C1913.05 1095.19 1916.22 1093.54 1918.51 1090.94C1920.81 1088.35 1922.06 1085 1922.04 1081.54V1062.11C1922.18 1062.03 1922.18 1061.79 1922.16 1061.57Z"></path>
  <path fill="#000" d="M1840.82 1095.79C1837.09 1095.79 1833.52 1094.31 1830.88 1091.68C1828.25 1089.04 1826.76 1085.47 1826.76 1081.74V1020.45L1019.2 1049.7C1015.47 1049.84 1011.84 1048.49 1009.11 1045.95C1006.38 1043.41 1004.77 1039.89 1004.63 1036.16C1004.5 1032.44 1005.85 1028.81 1008.39 1026.08C1010.92 1023.34 1014.44 1021.73 1018.17 1021.6L1840.31 991.808C1842.2 991.74 1844.08 992.054 1845.85 992.73C1847.61 993.406 1849.22 994.43 1850.58 995.742C1851.94 997.053 1853.02 998.625 1853.75 1000.36C1854.49 1002.1 1854.87 1003.97 1854.87 1005.86V1081.72C1854.87 1083.57 1854.51 1085.4 1853.8 1087.1C1853.1 1088.81 1852.07 1090.36 1850.76 1091.67C1849.45 1092.98 1847.9 1094.01 1846.2 1094.72C1844.49 1095.43 1842.66 1095.79 1840.82 1095.79Z"></path>
  <path fill="#000" d="M1760.46 1147.92C1756.73 1147.92 1753.16 1146.44 1750.52 1143.81C1747.89 1141.17 1746.41 1137.6 1746.41 1133.87V1072.26L1023.55 1082.12C1021.71 1082.15 1019.88 1081.81 1018.16 1081.12C1016.45 1080.44 1014.88 1079.43 1013.56 1078.14C1012.24 1076.85 1011.18 1075.32 1010.45 1073.62C1009.72 1071.93 1009.33 1070.11 1009.31 1068.26C1009.28 1066.41 1009.62 1064.58 1010.31 1062.87C1010.99 1061.15 1012 1059.59 1013.29 1058.27C1014.58 1056.95 1016.11 1055.89 1017.81 1055.16C1019.5 1054.43 1021.33 1054.04 1023.17 1054.02L1760.26 1043.98C1762.12 1043.95 1763.97 1044.3 1765.7 1044.99C1767.43 1045.69 1769 1046.72 1770.33 1048.02C1771.65 1049.33 1772.71 1050.89 1773.42 1052.61C1774.14 1054.33 1774.51 1056.17 1774.51 1058.03V1133.89C1774.51 1137.62 1773.02 1141.19 1770.39 1143.82C1767.75 1146.45 1764.18 1147.92 1760.46 1147.92Z"></path>
  <path fill="#15F1AB" d="M2050.25 2096.46C2048.02 2095.25 2045.5 2094.68 2042.97 2094.79 2040.43 2094.91 2037.98 2095.7 2035.86 2097.1 1954.24 2150.98 1758.23 2192.81 1548.05 2201.18 1309.29 2210.7 1111.14 2176.01 1004.4 2105.99 987.519 2094.91 971.479 2083.51 956.745 2072.13 954.646 2070.5 952.13 2069.51 949.489 2069.26 946.848 2069 944.19 2069.5 941.821 2070.7 939.452 2071.89 937.47 2073.73 936.104 2076.01 934.738 2078.28 934.043 2080.9 934.101 2083.55L934.904 2121.83 938.497 2332.97C938.555 2336.18 939.71 2339.27 941.77 2341.74 943.83 2344.2 946.671 2345.88 949.819 2346.5 1089.6 2374.18 1289.64 2390.04 1498.73 2390.04 1707.12 2390.04 1906.7 2374.26 2046.32 2346.74 2049.51 2346.12 2052.39 2344.4 2054.45 2341.89 2056.52 2339.38 2057.66 2336.23 2057.66 2332.97V2108.82C2057.66 2106.28 2056.97 2103.79 2055.66 2101.62 2054.36 2099.44 2052.49 2097.66 2050.25 2096.46ZM2052.46 1051.39C2050.85 1050.07 2048.97 1049.12 2046.96 1048.62 2044.94 1048.12 2042.84 1048.07 2040.8 1048.48 1962.25 1064.21 1760.12 1085.19 1560.2 1098.34 1318.24 1114.26 1126.39 1116.01 1033.83 1103.14 955.159 1092.22 942.291 1074.09 940.906 1071.68 940.312 1068.2 938.428 1065.07 935.63 1062.91 932.831 1060.76 929.324 1059.74 925.805 1060.05 922.287 1060.36 919.016 1061.99 916.643 1064.61 914.271 1067.22 912.971 1070.64 913.003 1074.17V1074.37L921.193 1465.34C921.25 1468.16 922.153 1470.89 923.786 1473.19 925.418 1475.49 927.704 1477.24 930.347 1478.23 990.57 1500.55 1145.72 1549.81 1340.61 1549.81 1354.18 1549.81 1367.93 1549.56 1381.86 1549.07 1640.82 1539.71 1658.66 1527.33 1725.13 1481.22L1731.15 1477.2C1771.74 1449.1 1794.67 1387.49 1813.07 1337.93 1821.22 1315.99 1828.93 1295.25 1836.18 1283.37 1837.5 1281.22 1845.41 1281.74 1859.65 1284.91 1872.37 1287.76 1901.22 1299.34 1894.19 1345.36 1885.26 1403.91 1891.81 1451.75 1910.88 1467.11 1913.86 1469.64 1917.46 1471.32 1921.32 1471.98 1925.17 1472.63 1929.13 1472.24 1932.78 1470.84 1940.81 1467.77 1952.05 1455.86 2003.04 1395.94 2021.45 1374.36 2040.48 1352.04 2053.83 1337.63 2056.24 1335.03 2057.58 1331.62 2057.58 1328.07V1062.27C2057.58 1060.19 2057.13 1058.13 2056.24 1056.25 2055.36 1054.37 2054.07 1052.71 2052.46 1051.39Z"></path>
  <path fill="#fff" d="M915.652 750.172L1071.25 1019.67L1267.98 1013.23C1265.48 912.835 1236.52 814.882 1184.03 729.275C1152.99 678.989 1121.7 646.488 1107.88 633.279L915.652 750.172Z"></path>
  <path fill="#000" d="M1063.28 1048.09C1060.81 1048.09 1058.39 1047.44 1056.26 1046.21 1054.12 1044.98 1052.35 1043.2 1051.11 1041.07L884.497 752.4C882.661 749.222 882.141 745.451 883.049 741.895 883.957 738.339 886.22 735.279 889.355 733.37L1102.14 603.85C1104.65 602.324 1107.57 601.622 1110.5 601.841 1113.43 602.061 1116.21 603.192 1118.46 605.075 1120.29 606.6 1163.51 643.216 1207.19 713.476 1247.34 778.216 1295.4 885.131 1296.2 1026.74 1296.2 1030.38 1294.79 1033.89 1292.25 1036.51 1289.71 1039.13 1286.26 1040.67 1282.61 1040.79L1063.8 1047.95 1063.28 1048.09ZM915.652 750.172 1071.25 1019.67 1267.98 1013.23C1265.48 912.834 1236.52 814.882 1184.03 729.274 1152.99 678.988 1121.69 646.488 1107.88 633.279L915.652 750.172ZM1210 1139.92C1140.71 1139.92 1076.81 1137.49 1030 1130.98 984.487 1124.66 951.706 1114.82 932.414 1101.71 915.07 1089.93 913.083 1078.53 913.043 1074.19 913.006 1070.66 914.302 1067.24 916.673 1064.62 919.044 1062 922.315 1060.37 925.835 1060.05 929.356 1059.73 932.866 1060.75 935.666 1062.91 938.467 1065.07 940.352 1068.2 940.946 1071.68 942.331 1074.09 955.199 1092.22 1033.87 1103.14 1126.43 1116.01 1318.28 1114.26 1560.24 1098.34 1760.16 1085.19 1962.29 1064.22 2040.84 1048.48 2042.65 1048.11 2044.51 1048.11 2046.32 1048.47 2048.13 1048.83 2049.85 1049.54 2051.39 1050.56 2052.93 1051.58 2054.25 1052.9 2055.27 1054.43 2056.3 1055.97 2057.02 1057.69 2057.38 1059.5 2057.74 1061.31 2057.74 1063.17 2057.39 1064.98 2057.03 1066.79 2056.32 1068.51 2055.29 1070.05 2054.27 1071.59 2052.95 1072.91 2051.42 1073.93 2049.89 1074.96 2048.17 1075.68 2046.36 1076.04 1966.74 1091.98 1763.07 1113.16 1562.09 1126.39 1470.71 1132.39 1332.01 1139.92 1210 1139.92ZM2009.86 1551.32C2006.81 1551.32 2003.85 1550.33 2001.41 1548.49 1998.97 1546.66 1997.2 1544.08 1996.36 1541.15 1995.51 1538.22 1995.65 1535.09 1996.74 1532.25 1997.83 1529.4 1999.81 1526.98 2002.4 1525.36 2113.85 1455.4 2110.8 1388.68 2107.34 1369.89 2103.33 1348.63 2089.86 1332.17 2073.62 1328.43 2070.97 1329.38 2061.57 1334.25 2037.36 1359.21 2019.48 1377.57 1999.65 1400.44 1982.16 1420.59 1949.56 1458.13 1940.47 1467.97 1932.78 1470.9 1928.82 1472.5 1924.51 1473.03 1920.29 1472.44 1916.06 1471.85 1912.06 1470.17 1908.69 1467.55 1892.93 1455.4 1888.17 1422.4 1894.11 1366.63 1901.36 1298.72 1862.16 1284.55 1849.95 1281.84 1846.22 1281.02 1842.32 1281.4 1838.81 1282.91 1835.3 1284.42 1832.35 1287 1830.38 1290.27 1824.5 1299.91 1819.82 1315.44 1814.32 1333.43 1799.64 1382.21 1777.46 1455.88 1698.31 1511.79 1665.87 1534.68 1600.85 1537.89 1458.36 1545.11 1435.02 1546.3 1409.62 1547.58 1382.08 1549.13 1244.85 1556.52 1124.08 1534.8 1046.84 1515.3 963.088 1494.11 912.34 1471.42 910.333 1470.48 906.92 1468.94 904.26 1466.1 902.936 1462.6 901.613 1459.1 901.736 1455.21 903.277 1451.8 904.818 1448.39 907.652 1445.73 911.155 1444.4 914.658 1443.08 918.543 1443.2 921.956 1444.74 923.963 1445.63 1125.13 1534.7 1380.63 1521.03 1408.28 1519.54 1433.71 1518.28 1457.08 1517.01 1585.65 1510.55 1656.45 1506.97 1682.25 1488.79 1753.47 1438.6 1773.17 1373.08 1787.56 1325.28 1793.58 1305.43 1798.68 1288.28 1806.47 1275.58 1811.5 1267.3 1818.99 1260.8 1827.9 1257 1836.8 1253.19 1846.68 1252.27 1856.13 1254.36 1893.09 1262.63 1929.83 1297.24 1922.1 1369.58 1916.86 1418.69 1921.7 1436.77 1924.41 1442.72 1931.81 1435.67 1947.75 1417.3 1960.92 1402.13 2028.97 1323.84 2056.82 1296.59 2077.57 1300.51 2106.06 1305.87 2128.6 1331.02 2134.97 1364.61 2138.66 1384.18 2138.54 1415.47 2116.9 1453.31 2097.03 1487.94 2063.54 1520.16 2017.41 1549.13 2015.15 1550.56 2012.54 1551.32 2009.86 1551.32Z"></path>
  <path fill="#000" d="M2022.71 1661.95C2019.73 1661.96 2016.82 1661.01 2014.41 1659.26C2012 1657.51 2010.21 1655.03 2009.3 1652.19C2008.39 1649.36 2008.4 1646.3 2009.34 1643.47C2010.28 1640.64 2012.09 1638.18 2014.52 1636.45C2054.09 1608.17 2083.86 1580.08 2102.99 1552.96C2156.34 1477.36 2109.19 1433.68 2107.16 1431.86C2105.77 1430.64 2104.64 1429.16 2103.82 1427.51C2103.01 1425.85 2102.52 1424.05 2102.4 1422.21C2102.28 1420.37 2102.52 1418.52 2103.12 1416.77C2103.71 1415.02 2104.64 1413.41 2105.86 1412.02C2107.07 1410.63 2108.55 1409.5 2110.21 1408.68C2111.86 1407.87 2113.66 1407.38 2115.5 1407.26C2117.35 1407.14 2119.19 1407.38 2120.94 1407.98C2122.69 1408.57 2124.3 1409.5 2125.69 1410.72C2138.13 1422.7 2147.23 1437.71 2152.11 1454.28C2159.62 1479.15 2161.16 1519.28 2126.01 1569.18C2105.07 1598.87 2073.08 1629.19 2030.96 1659.32C2028.56 1661.04 2025.67 1661.96 2022.71 1661.95Z"></path>
  <path fill="#000" d="M1670.61 1890.81C1640.98 1890.81 1609.91 1889.61 1577.4 1887.2C1476.38 1879.34 1376.3 1862.16 1278.44 1835.87C1205.81 1815.79 1177.24 1780.89 1144.04 1715.08C1122.32 1672.04 1112.56 1636.37 1105.46 1610.31C1101.28 1595.06 1097.99 1582.99 1093.89 1575.14C1089.88 1569.58 1063.98 1561.09 1046.82 1564.63C1018.29 1570.51 1014.9 1601.46 1017.09 1626.37C1019.48 1653.49 1022.81 1676.12 1025.24 1692.62C1030 1724.9 1031.78 1736.98 1021.52 1744.71C1018.86 1746.65 1015.71 1747.8 1012.42 1748.04C1009.14 1748.28 1005.85 1747.6 1002.94 1746.08C995.508 1742.68 987.74 1732.97 957.749 1692.82C941.508 1671.1 923.12 1646.47 906.278 1626.45C885.782 1602.1 876.167 1595.04 872.593 1593.03C861.372 1599.7 851.922 1608.98 845.042 1620.08C838.162 1631.18 834.055 1643.77 833.067 1656.79C830.538 1689.35 845.212 1740.88 929.424 1801.56C932.448 1803.74 934.482 1807.03 935.079 1810.71C935.675 1814.39 934.786 1818.16 932.605 1821.18C930.425 1824.21 927.133 1826.24 923.453 1826.84C919.773 1827.44 916.007 1826.55 912.983 1824.37C818.192 1756.11 801.952 1694.35 805.043 1654.62C806.349 1636.22 812.336 1618.45 822.437 1603.01C832.538 1587.58 846.417 1574.98 862.757 1566.41C884.839 1555.19 911.477 1583.94 980.272 1676C985.913 1683.57 992.136 1691.9 997.817 1699.34C997.696 1698.46 997.576 1697.6 997.435 1696.71C994.946 1679.87 991.554 1656.79 989.084 1628.84C982.801 1557.02 1023.39 1540.76 1041.16 1537.1C1066.77 1531.82 1108.43 1542.46 1118.68 1561.94C1124.24 1572.49 1127.92 1585.9 1132.56 1602.91C1139.36 1627.8 1148.61 1661.91 1169.13 1702.42C1199.72 1763.08 1222.73 1791.26 1285.94 1808.81C1377.34 1834.18 1526.51 1862.63 1669.48 1862.63C1756.69 1862.63 1841.54 1852.03 1909.55 1823.6C2014.44 1779.8 2082.05 1720.96 2105.1 1653.45C2122.26 1603.27 2108.81 1564.91 2108.67 1564.52C2107.46 1561.05 2107.67 1557.24 2109.24 1553.92C2110.81 1550.59 2113.63 1548.02 2117.08 1546.74C2120.53 1545.47 2124.34 1545.6 2127.69 1547.1C2131.05 1548.61 2133.68 1551.37 2135.03 1554.79C2135.73 1556.66 2151.89 1601.3 2132.38 1660.5C2121.11 1694.63 2100.26 1726.89 2070.31 1756.09C2033.67 1791.87 1983.22 1823.3 1920.39 1849.54C1854.65 1877 1770.9 1890.81 1670.61 1890.81Z"></path>
  <path fill="#000" d="M901.299 1936.57C898.065 1936.56 894.931 1935.44 892.426 1933.39C852.278 1900.63 822.327 1868.31 803.316 1837.36C771.358 1785.31 775.473 1745.36 784.547 1720.93C790.478 1704.71 800.522 1690.32 813.695 1679.15C816.65 1676.88 820.387 1675.87 824.083 1676.35C827.78 1676.84 831.134 1678.77 833.408 1681.72C835.681 1684.68 836.688 1688.41 836.206 1692.11C835.724 1695.81 833.793 1699.16 830.838 1701.43C828.59 1703.2 778.886 1743.77 827.265 1822.56C844.629 1850.85 872.533 1880.78 910.192 1911.53C912.477 1913.36 914.136 1915.85 914.937 1918.66C915.739 1921.47 915.644 1924.46 914.666 1927.22C913.687 1929.97 911.873 1932.35 909.477 1934.03C907.081 1935.7 904.223 1936.59 901.299 1936.57Z"></path>
  <path fill="#000" d="M1472.31 2230.81C1262.17 2230.81 1088.65 2194.82 989.043 2129.48C885.38 2061.46 821.483 1989.06 799.14 1914.24C781.796 1856.16 797.133 1818.47 797.835 1816.88C799.33 1813.53 802.073 1810.9 805.479 1809.55C808.885 1808.2 812.684 1808.23 816.067 1809.64C819.449 1811.05 822.148 1813.72 823.587 1817.09C825.027 1820.46 825.093 1824.26 823.771 1827.68C823.47 1828.44 811.506 1859.8 826.803 1908.62C841.336 1955.03 883.954 2026.94 1004.46 2105.99C1111.2 2176.01 1309.37 2210.7 1548.11 2201.18C1758.23 2192.81 1954.24 2151 2035.92 2097.1C2037.46 2096.02 2039.19 2095.27 2041.03 2094.88C2042.86 2094.48 2044.76 2094.46 2046.6 2094.82C2048.44 2095.17 2050.2 2095.89 2051.76 2096.93C2053.32 2097.97 2054.66 2099.31 2055.69 2100.88C2056.72 2102.44 2057.43 2104.2 2057.78 2106.04C2058.12 2107.89 2058.09 2109.78 2057.69 2111.62C2057.29 2113.45 2056.53 2115.18 2055.45 2116.72C2054.37 2118.25 2052.99 2119.55 2051.4 2120.54C1965.86 2177.01 1764.09 2220.69 1549.3 2229.27C1523.13 2230.31 1497.47 2230.83 1472.31 2230.81Z"></path>
  <path fill="#15F1AB" d="M2183.95 2207.57C2180.77 2207.55 2177.69 2206.46 2175.21 2204.47 2172.73 2202.48 2171 2199.71 2170.3 2196.6 2169.6 2193.5 2169.97 2190.25 2171.36 2187.39 2172.74 2184.53 2175.06 2182.22 2177.92 2180.85 2214.76 2162.4 2249.99 2140.91 2283.25 2116.61 2329.42 2082.36 2384.51 2030.71 2384.51 1979.06 2384.51 1975.33 2385.99 1971.76 2388.62 1969.12 2391.26 1966.49 2394.83 1965.01 2398.56 1965.01 2402.29 1965.01 2405.86 1966.49 2408.5 1969.12 2411.13 1971.76 2412.61 1975.33 2412.61 1979.06 2412.61 2098.02 2199.18 2201.88 2190.11 2206.28 2188.18 2207.17 2186.07 2207.61 2183.95 2207.57ZM2226.68 2296.88C2222.96 2297.01 2219.33 2295.65 2216.61 2293.1 2213.88 2290.56 2212.28 2287.04 2212.15 2283.31 2212.02 2279.58 2213.38 2275.96 2215.93 2273.23 2218.47 2270.51 2221.99 2268.9 2225.72 2268.77 2226.89 2268.77 2342.29 2260.16 2389.81 2222.86 2391.25 2221.63 2392.92 2220.7 2394.73 2220.13 2396.54 2219.57 2398.44 2219.37 2400.33 2219.55 2402.22 2219.74 2404.04 2220.31 2405.71 2221.22 2407.37 2222.13 2408.83 2223.37 2410 2224.86 2411.17 2226.35 2412.03 2228.06 2412.52 2229.89 2413.01 2231.72 2413.13 2233.63 2412.86 2235.51 2412.6 2237.39 2411.95 2239.19 2410.97 2240.81 2409.99 2242.43 2408.69 2243.84 2407.15 2244.95 2352.95 2287.56 2232.77 2296.44 2227.69 2296.78 2227.36 2296.83 2227.02 2296.87 2226.68 2296.88ZM839.35 2272.45C838.345 2272.45 837.342 2272.34 836.359 2272.13 719.607 2246.71 654.486 2147.26 651.776 2143.05 649.791 2139.91 649.125 2136.12 649.923 2132.5 650.721 2128.88 652.919 2125.72 656.037 2123.71 659.156 2121.7 662.941 2121.01 666.569 2121.78 670.197 2122.55 673.372 2124.73 675.403 2127.83 676.006 2128.77 737.192 2221.78 842.341 2244.66 845.729 2245.4 848.725 2247.36 850.752 2250.18 852.78 2252.99 853.696 2256.45 853.325 2259.9 852.954 2263.35 851.322 2266.53 848.742 2268.85 846.162 2271.17 842.817 2272.45 839.35 2272.45ZM777.059 2399.12C739.66 2399.12 701.579 2390.22 664.422 2372.58 619.897 2351.42 592.476 2325.32 591.331 2324.22 588.643 2321.64 587.09 2318.09 587.015 2314.37 586.939 2310.64 588.348 2307.04 590.93 2304.35 593.512 2301.66 597.056 2300.11 600.783 2300.03 604.51 2299.95 608.115 2301.36 610.803 2303.95 630.772 2321.63 653.193 2336.33 677.37 2347.59 730.928 2372.82 784.085 2377.84 835.395 2362.54 837.18 2361.95 839.065 2361.73 840.94 2361.88 842.814 2362.03 844.639 2362.55 846.306 2363.42 847.973 2364.29 849.449 2365.49 850.646 2366.94 851.843 2368.39 852.737 2370.06 853.274 2371.87 853.812 2373.67 853.982 2375.56 853.775 2377.43 853.568 2379.3 852.988 2381.11 852.07 2382.75 851.151 2384.39 849.913 2385.83 848.428 2386.98 846.943 2388.13 845.241 2388.98 843.424 2389.46 821.888 2395.88 799.532 2399.14 777.059 2399.12Z"></path>
</svg>
